<?xml version="1.0" encoding="UTF-8"?>
<svg width="947px" height="1523px" viewBox="0 0 947 1523" version="1.1" xmlns="http://www.w3.org/2000/svg" xmlns:xlink="http://www.w3.org/1999/xlink">
    <!-- Generator: Sketch 52.3 (67297) - http://www.bohemiancoding.com/sketch -->
    <title>Group 38</title>
    <desc>Created with Sketch.</desc>
    <g id="Page-1" stroke="none" stroke-width="1" fill="none" fill-rule="evenodd">
        <g id="Group-38">
            <rect id="Rectangle" stroke="#FFFFFF" stroke-width="0.5" opacity="0.6" x="5.25" y="5.25" width="936.5" height="1517.5"></rect>
            <rect id="Rectangle" fill="#FFFFFF" x="0" y="759" width="10" height="10"></rect>
            <g id="Group-37" opacity="0.6" transform="translate(5.000000, 1210.000000)" stroke="#FFFFFF">
                <g id="Group-36">
                    <rect id="Rectangle" x="0.5" y="0.5" width="39" height="39"></rect>
                    <rect id="Rectangle" x="39.5" y="0.5" width="39" height="39"></rect>
                    <rect id="Rectangle" x="78.5" y="0.5" width="39" height="39"></rect>
                    <rect id="Rectangle" x="117.5" y="0.5" width="39" height="39"></rect>
                    <rect id="Rectangle" x="156.5" y="0.5" width="39" height="39"></rect>
                    <rect id="Rectangle" x="195.5" y="0.5" width="39" height="39"></rect>
                    <rect id="Rectangle" x="234.5" y="0.5" width="39" height="39"></rect>
                    <rect id="Rectangle" x="273.5" y="0.5" width="39" height="39"></rect>
                </g>
                <g id="Group-36" transform="translate(0.000000, 39.000000)">
                    <rect id="Rectangle" x="0.5" y="0.5" width="39" height="39"></rect>
                    <rect id="Rectangle" x="39.5" y="0.5" width="39" height="39"></rect>
                    <rect id="Rectangle" x="78.5" y="0.5" width="39" height="39"></rect>
                    <rect id="Rectangle" x="117.5" y="0.5" width="39" height="39"></rect>
                    <rect id="Rectangle" x="156.5" y="0.5" width="39" height="39"></rect>
                    <rect id="Rectangle" x="195.5" y="0.5" width="39" height="39"></rect>
                    <rect id="Rectangle" x="234.5" y="0.5" width="39" height="39"></rect>
                    <rect id="Rectangle" x="273.5" y="0.5" width="39" height="39"></rect>
                </g>
                <g id="Group-36" transform="translate(0.000000, 78.000000)">
                    <rect id="Rectangle" x="0.5" y="0.5" width="39" height="39"></rect>
                    <rect id="Rectangle" x="39.5" y="0.5" width="39" height="39"></rect>
                    <rect id="Rectangle" x="78.5" y="0.5" width="39" height="39"></rect>
                    <rect id="Rectangle" x="117.5" y="0.5" width="39" height="39"></rect>
                    <rect id="Rectangle" x="156.5" y="0.5" width="39" height="39"></rect>
                    <rect id="Rectangle" x="195.5" y="0.5" width="39" height="39"></rect>
                    <rect id="Rectangle" x="234.5" y="0.5" width="39" height="39"></rect>
                    <rect id="Rectangle" x="273.5" y="0.5" width="39" height="39"></rect>
                </g>
                <g id="Group-36" transform="translate(0.000000, 117.000000)">
                    <rect id="Rectangle" x="0.5" y="0.5" width="39" height="39"></rect>
                    <rect id="Rectangle" x="39.5" y="0.5" width="39" height="39"></rect>
                    <rect id="Rectangle" x="78.5" y="0.5" width="39" height="39"></rect>
                    <rect id="Rectangle" x="117.5" y="0.5" width="39" height="39"></rect>
                    <rect id="Rectangle" x="156.5" y="0.5" width="39" height="39"></rect>
                    <rect id="Rectangle" x="195.5" y="0.5" width="39" height="39"></rect>
                    <rect id="Rectangle" x="234.5" y="0.5" width="39" height="39"></rect>
                    <rect id="Rectangle" x="273.5" y="0.5" width="39" height="39"></rect>
                </g>
                <g id="Group-36" transform="translate(0.000000, 156.000000)">
                    <rect id="Rectangle" x="0.5" y="0.5" width="39" height="39"></rect>
                    <rect id="Rectangle" x="39.5" y="0.5" width="39" height="39"></rect>
                    <rect id="Rectangle" x="78.5" y="0.5" width="39" height="39"></rect>
                    <rect id="Rectangle" x="117.5" y="0.5" width="39" height="39"></rect>
                    <rect id="Rectangle" x="156.5" y="0.5" width="39" height="39"></rect>
                    <rect id="Rectangle" x="195.5" y="0.5" width="39" height="39"></rect>
                    <rect id="Rectangle" x="234.5" y="0.5" width="39" height="39"></rect>
                    <rect id="Rectangle" x="273.5" y="0.5" width="39" height="39"></rect>
                </g>
                <g id="Group-36" transform="translate(0.000000, 195.000000)">
                    <rect id="Rectangle" x="0.5" y="0.5" width="39" height="39"></rect>
                    <rect id="Rectangle" x="39.5" y="0.5" width="39" height="39"></rect>
                    <rect id="Rectangle" x="78.5" y="0.5" width="39" height="39"></rect>
                    <rect id="Rectangle" x="117.5" y="0.5" width="39" height="39"></rect>
                    <rect id="Rectangle" x="156.5" y="0.5" width="39" height="39"></rect>
                    <rect id="Rectangle" x="195.5" y="0.5" width="39" height="39"></rect>
                    <rect id="Rectangle" x="234.5" y="0.5" width="39" height="39"></rect>
                    <rect id="Rectangle" x="273.5" y="0.5" width="39" height="39"></rect>
                </g>
                <g id="Group-36" transform="translate(0.000000, 234.000000)">
                    <rect id="Rectangle" x="0.5" y="0.5" width="39" height="39"></rect>
                    <rect id="Rectangle" x="39.5" y="0.5" width="39" height="39"></rect>
                    <rect id="Rectangle" x="78.5" y="0.5" width="39" height="39"></rect>
                    <rect id="Rectangle" x="117.5" y="0.5" width="39" height="39"></rect>
                    <rect id="Rectangle" x="156.5" y="0.5" width="39" height="39"></rect>
                    <rect id="Rectangle" x="195.5" y="0.5" width="39" height="39"></rect>
                    <rect id="Rectangle" x="234.5" y="0.5" width="39" height="39"></rect>
                    <rect id="Rectangle" x="273.5" y="0.5" width="39" height="39"></rect>
                </g>
                <g id="Group-36" transform="translate(0.000000, 273.000000)">
                    <rect id="Rectangle" x="0.5" y="0.5" width="39" height="39"></rect>
                    <rect id="Rectangle" x="39.5" y="0.5" width="39" height="39"></rect>
                    <rect id="Rectangle" x="78.5" y="0.5" width="39" height="39"></rect>
                    <rect id="Rectangle" x="117.5" y="0.5" width="39" height="39"></rect>
                    <rect id="Rectangle" x="156.5" y="0.5" width="39" height="39"></rect>
                    <rect id="Rectangle" x="195.5" y="0.5" width="39" height="39"></rect>
                    <rect id="Rectangle" x="234.5" y="0.5" width="39" height="39"></rect>
                    <rect id="Rectangle" x="273.5" y="0.5" width="39" height="39"></rect>
                </g>
            </g>
            <g id="Group-37" opacity="0.6" transform="translate(317.000000, 1210.000000)" stroke="#FFFFFF">
                <g id="Group-36">
                    <rect id="Rectangle" x="0.5" y="0.5" width="39" height="39"></rect>
                    <rect id="Rectangle" x="39.5" y="0.5" width="39" height="39"></rect>
                    <rect id="Rectangle" x="78.5" y="0.5" width="39" height="39"></rect>
                    <rect id="Rectangle" x="117.5" y="0.5" width="39" height="39"></rect>
                    <rect id="Rectangle" x="156.5" y="0.5" width="39" height="39"></rect>
                    <rect id="Rectangle" x="195.5" y="0.5" width="39" height="39"></rect>
                    <rect id="Rectangle" x="234.5" y="0.5" width="39" height="39"></rect>
                    <rect id="Rectangle" x="273.5" y="0.5" width="39" height="39"></rect>
                </g>
                <g id="Group-36" transform="translate(0.000000, 39.000000)">
                    <rect id="Rectangle" x="0.5" y="0.5" width="39" height="39"></rect>
                    <rect id="Rectangle" x="39.5" y="0.5" width="39" height="39"></rect>
                    <rect id="Rectangle" x="78.5" y="0.5" width="39" height="39"></rect>
                    <rect id="Rectangle" x="117.5" y="0.5" width="39" height="39"></rect>
                    <rect id="Rectangle" x="156.5" y="0.5" width="39" height="39"></rect>
                    <rect id="Rectangle" x="195.5" y="0.5" width="39" height="39"></rect>
                    <rect id="Rectangle" x="234.5" y="0.5" width="39" height="39"></rect>
                    <rect id="Rectangle" x="273.5" y="0.5" width="39" height="39"></rect>
                </g>
                <g id="Group-36" transform="translate(0.000000, 78.000000)">
                    <rect id="Rectangle" x="0.5" y="0.5" width="39" height="39"></rect>
                    <rect id="Rectangle" x="39.5" y="0.5" width="39" height="39"></rect>
                    <rect id="Rectangle" x="78.5" y="0.5" width="39" height="39"></rect>
                    <rect id="Rectangle" x="117.5" y="0.5" width="39" height="39"></rect>
                    <rect id="Rectangle" x="156.5" y="0.5" width="39" height="39"></rect>
                    <rect id="Rectangle" x="195.5" y="0.5" width="39" height="39"></rect>
                    <rect id="Rectangle" x="234.5" y="0.5" width="39" height="39"></rect>
                    <rect id="Rectangle" x="273.5" y="0.5" width="39" height="39"></rect>
                </g>
                <g id="Group-36" transform="translate(0.000000, 117.000000)">
                    <rect id="Rectangle" x="0.5" y="0.5" width="39" height="39"></rect>
                    <rect id="Rectangle" x="39.5" y="0.5" width="39" height="39"></rect>
                    <rect id="Rectangle" x="78.5" y="0.5" width="39" height="39"></rect>
                    <rect id="Rectangle" x="117.5" y="0.5" width="39" height="39"></rect>
                    <rect id="Rectangle" x="156.5" y="0.5" width="39" height="39"></rect>
                    <rect id="Rectangle" x="195.5" y="0.5" width="39" height="39"></rect>
                    <rect id="Rectangle" x="234.5" y="0.5" width="39" height="39"></rect>
                    <rect id="Rectangle" x="273.5" y="0.5" width="39" height="39"></rect>
                </g>
                <g id="Group-36" transform="translate(0.000000, 156.000000)">
                    <rect id="Rectangle" x="0.5" y="0.5" width="39" height="39"></rect>
                    <rect id="Rectangle" x="39.5" y="0.5" width="39" height="39"></rect>
                    <rect id="Rectangle" x="78.5" y="0.5" width="39" height="39"></rect>
                    <rect id="Rectangle" x="117.5" y="0.5" width="39" height="39"></rect>
                    <rect id="Rectangle" x="156.5" y="0.5" width="39" height="39"></rect>
                    <rect id="Rectangle" x="195.5" y="0.5" width="39" height="39"></rect>
                    <rect id="Rectangle" x="234.5" y="0.5" width="39" height="39"></rect>
                    <rect id="Rectangle" x="273.5" y="0.5" width="39" height="39"></rect>
                </g>
                <g id="Group-36" transform="translate(0.000000, 195.000000)">
                    <rect id="Rectangle" x="0.5" y="0.5" width="39" height="39"></rect>
                    <rect id="Rectangle" x="39.5" y="0.5" width="39" height="39"></rect>
                    <rect id="Rectangle" x="78.5" y="0.5" width="39" height="39"></rect>
                    <rect id="Rectangle" x="117.5" y="0.5" width="39" height="39"></rect>
                    <rect id="Rectangle" x="156.5" y="0.5" width="39" height="39"></rect>
                    <rect id="Rectangle" x="195.5" y="0.5" width="39" height="39"></rect>
                    <rect id="Rectangle" x="234.5" y="0.5" width="39" height="39"></rect>
                    <rect id="Rectangle" x="273.5" y="0.5" width="39" height="39"></rect>
                </g>
                <g id="Group-36" transform="translate(0.000000, 234.000000)">
                    <rect id="Rectangle" x="0.5" y="0.5" width="39" height="39"></rect>
                    <rect id="Rectangle" x="39.5" y="0.5" width="39" height="39"></rect>
                    <rect id="Rectangle" x="78.5" y="0.5" width="39" height="39"></rect>
                    <rect id="Rectangle" x="117.5" y="0.5" width="39" height="39"></rect>
                    <rect id="Rectangle" x="156.5" y="0.5" width="39" height="39"></rect>
                    <rect id="Rectangle" x="195.5" y="0.5" width="39" height="39"></rect>
                    <rect id="Rectangle" x="234.5" y="0.5" width="39" height="39"></rect>
                    <rect id="Rectangle" x="273.5" y="0.5" width="39" height="39"></rect>
                </g>
                <g id="Group-36" transform="translate(0.000000, 273.000000)">
                    <rect id="Rectangle" x="0.5" y="0.5" width="39" height="39"></rect>
                    <rect id="Rectangle" x="39.5" y="0.5" width="39" height="39"></rect>
                    <rect id="Rectangle" x="78.5" y="0.5" width="39" height="39"></rect>
                    <rect id="Rectangle" x="117.5" y="0.5" width="39" height="39"></rect>
                    <rect id="Rectangle" x="156.5" y="0.5" width="39" height="39"></rect>
                    <rect id="Rectangle" x="195.5" y="0.5" width="39" height="39"></rect>
                    <rect id="Rectangle" x="234.5" y="0.5" width="39" height="39"></rect>
                    <rect id="Rectangle" x="273.5" y="0.5" width="39" height="39"></rect>
                </g>
            </g>
            <g id="Group-37" opacity="0.6" transform="translate(629.000000, 1210.000000)" stroke="#FFFFFF">
                <g id="Group-36">
                    <rect id="Rectangle" x="0.5" y="0.5" width="39" height="39"></rect>
                    <rect id="Rectangle" x="39.5" y="0.5" width="39" height="39"></rect>
                    <rect id="Rectangle" x="78.5" y="0.5" width="39" height="39"></rect>
                    <rect id="Rectangle" x="117.5" y="0.5" width="39" height="39"></rect>
                    <rect id="Rectangle" x="156.5" y="0.5" width="39" height="39"></rect>
                    <rect id="Rectangle" x="195.5" y="0.5" width="39" height="39"></rect>
                    <rect id="Rectangle" x="234.5" y="0.5" width="39" height="39"></rect>
                    <rect id="Rectangle" x="273.5" y="0.5" width="39" height="39"></rect>
                </g>
                <g id="Group-36" transform="translate(0.000000, 39.000000)">
                    <rect id="Rectangle" x="0.5" y="0.5" width="39" height="39"></rect>
                    <rect id="Rectangle" x="39.5" y="0.5" width="39" height="39"></rect>
                    <rect id="Rectangle" x="78.5" y="0.5" width="39" height="39"></rect>
                    <rect id="Rectangle" x="117.5" y="0.5" width="39" height="39"></rect>
                    <rect id="Rectangle" x="156.5" y="0.5" width="39" height="39"></rect>
                    <rect id="Rectangle" x="195.5" y="0.5" width="39" height="39"></rect>
                    <rect id="Rectangle" x="234.5" y="0.5" width="39" height="39"></rect>
                    <rect id="Rectangle" x="273.5" y="0.5" width="39" height="39"></rect>
                </g>
                <g id="Group-36" transform="translate(0.000000, 78.000000)">
                    <rect id="Rectangle" x="0.5" y="0.5" width="39" height="39"></rect>
                    <rect id="Rectangle" x="39.5" y="0.5" width="39" height="39"></rect>
                    <rect id="Rectangle" x="78.5" y="0.5" width="39" height="39"></rect>
                    <rect id="Rectangle" x="117.5" y="0.5" width="39" height="39"></rect>
                    <rect id="Rectangle" x="156.5" y="0.5" width="39" height="39"></rect>
                    <rect id="Rectangle" x="195.5" y="0.5" width="39" height="39"></rect>
                    <rect id="Rectangle" x="234.5" y="0.5" width="39" height="39"></rect>
                    <rect id="Rectangle" x="273.5" y="0.5" width="39" height="39"></rect>
                </g>
                <g id="Group-36" transform="translate(0.000000, 117.000000)">
                    <rect id="Rectangle" x="0.5" y="0.5" width="39" height="39"></rect>
                    <rect id="Rectangle" x="39.5" y="0.5" width="39" height="39"></rect>
                    <rect id="Rectangle" x="78.5" y="0.5" width="39" height="39"></rect>
                    <rect id="Rectangle" x="117.5" y="0.5" width="39" height="39"></rect>
                    <rect id="Rectangle" x="156.5" y="0.5" width="39" height="39"></rect>
                    <rect id="Rectangle" x="195.5" y="0.5" width="39" height="39"></rect>
                    <rect id="Rectangle" x="234.5" y="0.5" width="39" height="39"></rect>
                    <rect id="Rectangle" x="273.5" y="0.5" width="39" height="39"></rect>
                </g>
                <g id="Group-36" transform="translate(0.000000, 156.000000)">
                    <rect id="Rectangle" x="0.5" y="0.5" width="39" height="39"></rect>
                    <rect id="Rectangle" x="39.5" y="0.5" width="39" height="39"></rect>
                    <rect id="Rectangle" x="78.5" y="0.5" width="39" height="39"></rect>
                    <rect id="Rectangle" x="117.5" y="0.5" width="39" height="39"></rect>
                    <rect id="Rectangle" x="156.5" y="0.5" width="39" height="39"></rect>
                    <rect id="Rectangle" x="195.5" y="0.5" width="39" height="39"></rect>
                    <rect id="Rectangle" x="234.5" y="0.5" width="39" height="39"></rect>
                    <rect id="Rectangle" x="273.5" y="0.5" width="39" height="39"></rect>
                </g>
                <g id="Group-36" transform="translate(0.000000, 195.000000)">
                    <rect id="Rectangle" x="0.5" y="0.5" width="39" height="39"></rect>
                    <rect id="Rectangle" x="39.5" y="0.5" width="39" height="39"></rect>
                    <rect id="Rectangle" x="78.5" y="0.5" width="39" height="39"></rect>
                    <rect id="Rectangle" x="117.5" y="0.5" width="39" height="39"></rect>
                    <rect id="Rectangle" x="156.5" y="0.5" width="39" height="39"></rect>
                    <rect id="Rectangle" x="195.5" y="0.5" width="39" height="39"></rect>
                    <rect id="Rectangle" x="234.5" y="0.5" width="39" height="39"></rect>
                    <rect id="Rectangle" x="273.5" y="0.5" width="39" height="39"></rect>
                </g>
                <g id="Group-36" transform="translate(0.000000, 234.000000)">
                    <rect id="Rectangle" x="0.5" y="0.5" width="39" height="39"></rect>
                    <rect id="Rectangle" x="39.5" y="0.5" width="39" height="39"></rect>
                    <rect id="Rectangle" x="78.5" y="0.5" width="39" height="39"></rect>
                    <rect id="Rectangle" x="117.5" y="0.5" width="39" height="39"></rect>
                    <rect id="Rectangle" x="156.5" y="0.5" width="39" height="39"></rect>
                    <rect id="Rectangle" x="195.5" y="0.5" width="39" height="39"></rect>
                    <rect id="Rectangle" x="234.5" y="0.5" width="39" height="39"></rect>
                    <rect id="Rectangle" x="273.5" y="0.5" width="39" height="39"></rect>
                </g>
                <g id="Group-36" transform="translate(0.000000, 273.000000)">
                    <rect id="Rectangle" x="0.5" y="0.5" width="39" height="39"></rect>
                    <rect id="Rectangle" x="39.5" y="0.5" width="39" height="39"></rect>
                    <rect id="Rectangle" x="78.5" y="0.5" width="39" height="39"></rect>
                    <rect id="Rectangle" x="117.5" y="0.5" width="39" height="39"></rect>
                    <rect id="Rectangle" x="156.5" y="0.5" width="39" height="39"></rect>
                    <rect id="Rectangle" x="195.5" y="0.5" width="39" height="39"></rect>
                    <rect id="Rectangle" x="234.5" y="0.5" width="39" height="39"></rect>
                    <rect id="Rectangle" x="273.5" y="0.5" width="39" height="39"></rect>
                </g>
            </g>
            <rect id="Rectangle" fill="#FFFFFF" x="469" y="0" width="10" height="10"></rect>
            <rect id="Rectangle" fill="#FFFFFF" x="937" y="0" width="10" height="10"></rect>
            <rect id="Rectangle" fill="#FFFFFF" x="0" y="0" width="10" height="10"></rect>
            <rect id="Rectangle" fill="#FFFFFF" x="937" y="759" width="10" height="10"></rect>
        </g>
    </g>
</svg>