<?xml version="1.0" encoding="UTF-8"?>
<svg width="1270px" height="1530px" viewBox="0 0 1270 1530" version="1.1" xmlns="http://www.w3.org/2000/svg" xmlns:xlink="http://www.w3.org/1999/xlink">
    <!-- Generator: Sketch 52.3 (67297) - http://www.bohemiancoding.com/sketch -->
    <title>Group 41</title>
    <desc>Created with Sketch.</desc>
    <g id="Page-1" stroke="none" stroke-width="1" fill="none" fill-rule="evenodd">
        <g id="Group-41" transform="translate(0.000000, -1.000000)" stroke="#FFFFFF">
            <g id="Group-38" transform="translate(11.000000, 13.000000)" opacity="0.6">
                <rect id="Rectangle" stroke-width="0.5" x="0.25" y="0.25" width="1249.5" height="1517.5"></rect>
                <g id="Group-37" transform="translate(0.000000, 1205.000000)">
                    <g id="Group-36">
                        <rect id="Rectangle" x="0.5" y="0.5" width="39" height="39"></rect>
                        <rect id="Rectangle" x="39.5" y="0.5" width="39" height="39"></rect>
                        <rect id="Rectangle" x="78.5" y="0.5" width="39" height="39"></rect>
                        <rect id="Rectangle" x="117.5" y="0.5" width="39" height="39"></rect>
                        <rect id="Rectangle" x="156.5" y="0.5" width="39" height="39"></rect>
                        <rect id="Rectangle" x="195.5" y="0.5" width="39" height="39"></rect>
                        <rect id="Rectangle" x="234.5" y="0.5" width="39" height="39"></rect>
                        <rect id="Rectangle" x="273.5" y="0.5" width="39" height="39"></rect>
                    </g>
                    <g id="Group-36" transform="translate(0.000000, 39.000000)">
                        <rect id="Rectangle" x="0.5" y="0.5" width="39" height="39"></rect>
                        <rect id="Rectangle" x="39.5" y="0.5" width="39" height="39"></rect>
                        <rect id="Rectangle" x="78.5" y="0.5" width="39" height="39"></rect>
                        <rect id="Rectangle" x="117.5" y="0.5" width="39" height="39"></rect>
                        <rect id="Rectangle" x="156.5" y="0.5" width="39" height="39"></rect>
                        <rect id="Rectangle" x="195.5" y="0.5" width="39" height="39"></rect>
                        <rect id="Rectangle" x="234.5" y="0.5" width="39" height="39"></rect>
                        <rect id="Rectangle" x="273.5" y="0.5" width="39" height="39"></rect>
                    </g>
                    <g id="Group-36" transform="translate(0.000000, 78.000000)">
                        <rect id="Rectangle" x="0.5" y="0.5" width="39" height="39"></rect>
                        <rect id="Rectangle" x="39.5" y="0.5" width="39" height="39"></rect>
                        <rect id="Rectangle" x="78.5" y="0.5" width="39" height="39"></rect>
                        <rect id="Rectangle" x="117.5" y="0.5" width="39" height="39"></rect>
                        <rect id="Rectangle" x="156.5" y="0.5" width="39" height="39"></rect>
                        <rect id="Rectangle" x="195.5" y="0.5" width="39" height="39"></rect>
                        <rect id="Rectangle" x="234.5" y="0.5" width="39" height="39"></rect>
                        <rect id="Rectangle" x="273.5" y="0.5" width="39" height="39"></rect>
                    </g>
                    <g id="Group-36" transform="translate(0.000000, 117.000000)">
                        <rect id="Rectangle" x="0.5" y="0.5" width="39" height="39"></rect>
                        <rect id="Rectangle" x="39.5" y="0.5" width="39" height="39"></rect>
                        <rect id="Rectangle" x="78.5" y="0.5" width="39" height="39"></rect>
                        <rect id="Rectangle" x="117.5" y="0.5" width="39" height="39"></rect>
                        <rect id="Rectangle" x="156.5" y="0.5" width="39" height="39"></rect>
                        <rect id="Rectangle" x="195.5" y="0.5" width="39" height="39"></rect>
                        <rect id="Rectangle" x="234.5" y="0.5" width="39" height="39"></rect>
                        <rect id="Rectangle" x="273.5" y="0.5" width="39" height="39"></rect>
                    </g>
                    <g id="Group-36" transform="translate(0.000000, 156.000000)">
                        <rect id="Rectangle" x="0.5" y="0.5" width="39" height="39"></rect>
                        <rect id="Rectangle" x="39.5" y="0.5" width="39" height="39"></rect>
                        <rect id="Rectangle" x="78.5" y="0.5" width="39" height="39"></rect>
                        <rect id="Rectangle" x="117.5" y="0.5" width="39" height="39"></rect>
                        <rect id="Rectangle" x="156.5" y="0.5" width="39" height="39"></rect>
                        <rect id="Rectangle" x="195.5" y="0.5" width="39" height="39"></rect>
                        <rect id="Rectangle" x="234.5" y="0.5" width="39" height="39"></rect>
                        <rect id="Rectangle" x="273.5" y="0.5" width="39" height="39"></rect>
                    </g>
                    <g id="Group-36" transform="translate(0.000000, 195.000000)">
                        <rect id="Rectangle" x="0.5" y="0.5" width="39" height="39"></rect>
                        <rect id="Rectangle" x="39.5" y="0.5" width="39" height="39"></rect>
                        <rect id="Rectangle" x="78.5" y="0.5" width="39" height="39"></rect>
                        <rect id="Rectangle" x="117.5" y="0.5" width="39" height="39"></rect>
                        <rect id="Rectangle" x="156.5" y="0.5" width="39" height="39"></rect>
                        <rect id="Rectangle" x="195.5" y="0.5" width="39" height="39"></rect>
                        <rect id="Rectangle" x="234.5" y="0.5" width="39" height="39"></rect>
                        <rect id="Rectangle" x="273.5" y="0.5" width="39" height="39"></rect>
                    </g>
                    <g id="Group-36" transform="translate(0.000000, 234.000000)">
                        <rect id="Rectangle" x="0.5" y="0.5" width="39" height="39"></rect>
                        <rect id="Rectangle" x="39.5" y="0.5" width="39" height="39"></rect>
                        <rect id="Rectangle" x="78.5" y="0.5" width="39" height="39"></rect>
                        <rect id="Rectangle" x="117.5" y="0.5" width="39" height="39"></rect>
                        <rect id="Rectangle" x="156.5" y="0.5" width="39" height="39"></rect>
                        <rect id="Rectangle" x="195.5" y="0.5" width="39" height="39"></rect>
                        <rect id="Rectangle" x="234.5" y="0.5" width="39" height="39"></rect>
                        <rect id="Rectangle" x="273.5" y="0.5" width="39" height="39"></rect>
                    </g>
                    <g id="Group-36" transform="translate(0.000000, 273.000000)">
                        <rect id="Rectangle" x="0.5" y="0.5" width="39" height="39"></rect>
                        <rect id="Rectangle" x="39.5" y="0.5" width="39" height="39"></rect>
                        <rect id="Rectangle" x="78.5" y="0.5" width="39" height="39"></rect>
                        <rect id="Rectangle" x="117.5" y="0.5" width="39" height="39"></rect>
                        <rect id="Rectangle" x="156.5" y="0.5" width="39" height="39"></rect>
                        <rect id="Rectangle" x="195.5" y="0.5" width="39" height="39"></rect>
                        <rect id="Rectangle" x="234.5" y="0.5" width="39" height="39"></rect>
                        <rect id="Rectangle" x="273.5" y="0.5" width="39" height="39"></rect>
                    </g>
                </g>
                <g id="Group-37" transform="translate(312.000000, 1205.000000)">
                    <g id="Group-36">
                        <rect id="Rectangle" x="0.5" y="0.5" width="39" height="39"></rect>
                        <rect id="Rectangle" x="39.5" y="0.5" width="39" height="39"></rect>
                        <rect id="Rectangle" x="78.5" y="0.5" width="39" height="39"></rect>
                        <rect id="Rectangle" x="117.5" y="0.5" width="39" height="39"></rect>
                        <rect id="Rectangle" x="156.5" y="0.5" width="39" height="39"></rect>
                        <rect id="Rectangle" x="195.5" y="0.5" width="39" height="39"></rect>
                        <rect id="Rectangle" x="234.5" y="0.5" width="39" height="39"></rect>
                        <rect id="Rectangle" x="273.5" y="0.5" width="39" height="39"></rect>
                    </g>
                    <g id="Group-36" transform="translate(0.000000, 39.000000)">
                        <rect id="Rectangle" x="0.5" y="0.5" width="39" height="39"></rect>
                        <rect id="Rectangle" x="39.5" y="0.5" width="39" height="39"></rect>
                        <rect id="Rectangle" x="78.5" y="0.5" width="39" height="39"></rect>
                        <rect id="Rectangle" x="117.5" y="0.5" width="39" height="39"></rect>
                        <rect id="Rectangle" x="156.5" y="0.5" width="39" height="39"></rect>
                        <rect id="Rectangle" x="195.5" y="0.5" width="39" height="39"></rect>
                        <rect id="Rectangle" x="234.5" y="0.5" width="39" height="39"></rect>
                        <rect id="Rectangle" x="273.5" y="0.5" width="39" height="39"></rect>
                    </g>
                    <g id="Group-36" transform="translate(0.000000, 78.000000)">
                        <rect id="Rectangle" x="0.5" y="0.5" width="39" height="39"></rect>
                        <rect id="Rectangle" x="39.5" y="0.5" width="39" height="39"></rect>
                        <rect id="Rectangle" x="78.5" y="0.5" width="39" height="39"></rect>
                        <rect id="Rectangle" x="117.5" y="0.5" width="39" height="39"></rect>
                        <rect id="Rectangle" x="156.5" y="0.5" width="39" height="39"></rect>
                        <rect id="Rectangle" x="195.5" y="0.5" width="39" height="39"></rect>
                        <rect id="Rectangle" x="234.5" y="0.5" width="39" height="39"></rect>
                        <rect id="Rectangle" x="273.5" y="0.5" width="39" height="39"></rect>
                    </g>
                    <g id="Group-36" transform="translate(0.000000, 117.000000)">
                        <rect id="Rectangle" x="0.5" y="0.5" width="39" height="39"></rect>
                        <rect id="Rectangle" x="39.5" y="0.5" width="39" height="39"></rect>
                        <rect id="Rectangle" x="78.5" y="0.5" width="39" height="39"></rect>
                        <rect id="Rectangle" x="117.5" y="0.5" width="39" height="39"></rect>
                        <rect id="Rectangle" x="156.5" y="0.5" width="39" height="39"></rect>
                        <rect id="Rectangle" x="195.5" y="0.5" width="39" height="39"></rect>
                        <rect id="Rectangle" x="234.5" y="0.5" width="39" height="39"></rect>
                        <rect id="Rectangle" x="273.5" y="0.5" width="39" height="39"></rect>
                    </g>
                    <g id="Group-36" transform="translate(0.000000, 156.000000)">
                        <rect id="Rectangle" x="0.5" y="0.5" width="39" height="39"></rect>
                        <rect id="Rectangle" x="39.5" y="0.5" width="39" height="39"></rect>
                        <rect id="Rectangle" x="78.5" y="0.5" width="39" height="39"></rect>
                        <rect id="Rectangle" x="117.5" y="0.5" width="39" height="39"></rect>
                        <rect id="Rectangle" x="156.5" y="0.5" width="39" height="39"></rect>
                        <rect id="Rectangle" x="195.5" y="0.5" width="39" height="39"></rect>
                        <rect id="Rectangle" x="234.5" y="0.5" width="39" height="39"></rect>
                        <rect id="Rectangle" x="273.5" y="0.5" width="39" height="39"></rect>
                    </g>
                    <g id="Group-36" transform="translate(0.000000, 195.000000)">
                        <rect id="Rectangle" x="0.5" y="0.5" width="39" height="39"></rect>
                        <rect id="Rectangle" x="39.5" y="0.5" width="39" height="39"></rect>
                        <rect id="Rectangle" x="78.5" y="0.5" width="39" height="39"></rect>
                        <rect id="Rectangle" x="117.5" y="0.5" width="39" height="39"></rect>
                        <rect id="Rectangle" x="156.5" y="0.5" width="39" height="39"></rect>
                        <rect id="Rectangle" x="195.5" y="0.5" width="39" height="39"></rect>
                        <rect id="Rectangle" x="234.5" y="0.5" width="39" height="39"></rect>
                        <rect id="Rectangle" x="273.5" y="0.5" width="39" height="39"></rect>
                    </g>
                    <g id="Group-36" transform="translate(0.000000, 234.000000)">
                        <rect id="Rectangle" x="0.5" y="0.5" width="39" height="39"></rect>
                        <rect id="Rectangle" x="39.5" y="0.5" width="39" height="39"></rect>
                        <rect id="Rectangle" x="78.5" y="0.5" width="39" height="39"></rect>
                        <rect id="Rectangle" x="117.5" y="0.5" width="39" height="39"></rect>
                        <rect id="Rectangle" x="156.5" y="0.5" width="39" height="39"></rect>
                        <rect id="Rectangle" x="195.5" y="0.5" width="39" height="39"></rect>
                        <rect id="Rectangle" x="234.5" y="0.5" width="39" height="39"></rect>
                        <rect id="Rectangle" x="273.5" y="0.5" width="39" height="39"></rect>
                    </g>
                    <g id="Group-36" transform="translate(0.000000, 273.000000)">
                        <rect id="Rectangle" x="0.5" y="0.5" width="39" height="39"></rect>
                        <rect id="Rectangle" x="39.5" y="0.5" width="39" height="39"></rect>
                        <rect id="Rectangle" x="78.5" y="0.5" width="39" height="39"></rect>
                        <rect id="Rectangle" x="117.5" y="0.5" width="39" height="39"></rect>
                        <rect id="Rectangle" x="156.5" y="0.5" width="39" height="39"></rect>
                        <rect id="Rectangle" x="195.5" y="0.5" width="39" height="39"></rect>
                        <rect id="Rectangle" x="234.5" y="0.5" width="39" height="39"></rect>
                        <rect id="Rectangle" x="273.5" y="0.5" width="39" height="39"></rect>
                    </g>
                </g>
                <g id="Group-37" transform="translate(624.000000, 1205.000000)">
                    <g id="Group-36">
                        <rect id="Rectangle" x="0.5" y="0.5" width="39" height="39"></rect>
                        <rect id="Rectangle" x="39.5" y="0.5" width="39" height="39"></rect>
                        <rect id="Rectangle" x="78.5" y="0.5" width="39" height="39"></rect>
                        <rect id="Rectangle" x="117.5" y="0.5" width="39" height="39"></rect>
                        <rect id="Rectangle" x="156.5" y="0.5" width="39" height="39"></rect>
                        <rect id="Rectangle" x="195.5" y="0.5" width="39" height="39"></rect>
                        <rect id="Rectangle" x="234.5" y="0.5" width="39" height="39"></rect>
                        <rect id="Rectangle" x="273.5" y="0.5" width="39" height="39"></rect>
                    </g>
                    <g id="Group-36" transform="translate(0.000000, 39.000000)">
                        <rect id="Rectangle" x="0.5" y="0.5" width="39" height="39"></rect>
                        <rect id="Rectangle" x="39.5" y="0.5" width="39" height="39"></rect>
                        <rect id="Rectangle" x="78.5" y="0.5" width="39" height="39"></rect>
                        <rect id="Rectangle" x="117.5" y="0.5" width="39" height="39"></rect>
                        <rect id="Rectangle" x="156.5" y="0.5" width="39" height="39"></rect>
                        <rect id="Rectangle" x="195.5" y="0.5" width="39" height="39"></rect>
                        <rect id="Rectangle" x="234.5" y="0.5" width="39" height="39"></rect>
                        <rect id="Rectangle" x="273.5" y="0.5" width="39" height="39"></rect>
                    </g>
                    <g id="Group-36" transform="translate(0.000000, 78.000000)">
                        <rect id="Rectangle" x="0.5" y="0.5" width="39" height="39"></rect>
                        <rect id="Rectangle" x="39.5" y="0.5" width="39" height="39"></rect>
                        <rect id="Rectangle" x="78.5" y="0.5" width="39" height="39"></rect>
                        <rect id="Rectangle" x="117.5" y="0.5" width="39" height="39"></rect>
                        <rect id="Rectangle" x="156.5" y="0.5" width="39" height="39"></rect>
                        <rect id="Rectangle" x="195.5" y="0.5" width="39" height="39"></rect>
                        <rect id="Rectangle" x="234.5" y="0.5" width="39" height="39"></rect>
                        <rect id="Rectangle" x="273.5" y="0.5" width="39" height="39"></rect>
                    </g>
                    <g id="Group-36" transform="translate(0.000000, 117.000000)">
                        <rect id="Rectangle" x="0.5" y="0.5" width="39" height="39"></rect>
                        <rect id="Rectangle" x="39.5" y="0.5" width="39" height="39"></rect>
                        <rect id="Rectangle" x="78.5" y="0.5" width="39" height="39"></rect>
                        <rect id="Rectangle" x="117.5" y="0.5" width="39" height="39"></rect>
                        <rect id="Rectangle" x="156.5" y="0.5" width="39" height="39"></rect>
                        <rect id="Rectangle" x="195.5" y="0.5" width="39" height="39"></rect>
                        <rect id="Rectangle" x="234.5" y="0.5" width="39" height="39"></rect>
                        <rect id="Rectangle" x="273.5" y="0.5" width="39" height="39"></rect>
                    </g>
                    <g id="Group-36" transform="translate(0.000000, 156.000000)">
                        <rect id="Rectangle" x="0.5" y="0.5" width="39" height="39"></rect>
                        <rect id="Rectangle" x="39.5" y="0.5" width="39" height="39"></rect>
                        <rect id="Rectangle" x="78.5" y="0.5" width="39" height="39"></rect>
                        <rect id="Rectangle" x="117.5" y="0.5" width="39" height="39"></rect>
                        <rect id="Rectangle" x="156.5" y="0.5" width="39" height="39"></rect>
                        <rect id="Rectangle" x="195.5" y="0.5" width="39" height="39"></rect>
                        <rect id="Rectangle" x="234.5" y="0.5" width="39" height="39"></rect>
                        <rect id="Rectangle" x="273.5" y="0.5" width="39" height="39"></rect>
                    </g>
                    <g id="Group-36" transform="translate(0.000000, 195.000000)">
                        <rect id="Rectangle" x="0.5" y="0.5" width="39" height="39"></rect>
                        <rect id="Rectangle" x="39.5" y="0.5" width="39" height="39"></rect>
                        <rect id="Rectangle" x="78.5" y="0.5" width="39" height="39"></rect>
                        <rect id="Rectangle" x="117.5" y="0.5" width="39" height="39"></rect>
                        <rect id="Rectangle" x="156.5" y="0.5" width="39" height="39"></rect>
                        <rect id="Rectangle" x="195.5" y="0.5" width="39" height="39"></rect>
                        <rect id="Rectangle" x="234.5" y="0.5" width="39" height="39"></rect>
                        <rect id="Rectangle" x="273.5" y="0.5" width="39" height="39"></rect>
                    </g>
                    <g id="Group-36" transform="translate(0.000000, 234.000000)">
                        <rect id="Rectangle" x="0.5" y="0.5" width="39" height="39"></rect>
                        <rect id="Rectangle" x="39.5" y="0.5" width="39" height="39"></rect>
                        <rect id="Rectangle" x="78.5" y="0.5" width="39" height="39"></rect>
                        <rect id="Rectangle" x="117.5" y="0.5" width="39" height="39"></rect>
                        <rect id="Rectangle" x="156.5" y="0.5" width="39" height="39"></rect>
                        <rect id="Rectangle" x="195.5" y="0.5" width="39" height="39"></rect>
                        <rect id="Rectangle" x="234.5" y="0.5" width="39" height="39"></rect>
                        <rect id="Rectangle" x="273.5" y="0.5" width="39" height="39"></rect>
                    </g>
                    <g id="Group-36" transform="translate(0.000000, 273.000000)">
                        <rect id="Rectangle" x="0.5" y="0.5" width="39" height="39"></rect>
                        <rect id="Rectangle" x="39.5" y="0.5" width="39" height="39"></rect>
                        <rect id="Rectangle" x="78.5" y="0.5" width="39" height="39"></rect>
                        <rect id="Rectangle" x="117.5" y="0.5" width="39" height="39"></rect>
                        <rect id="Rectangle" x="156.5" y="0.5" width="39" height="39"></rect>
                        <rect id="Rectangle" x="195.5" y="0.5" width="39" height="39"></rect>
                        <rect id="Rectangle" x="234.5" y="0.5" width="39" height="39"></rect>
                        <rect id="Rectangle" x="273.5" y="0.5" width="39" height="39"></rect>
                    </g>
                </g>
                <g id="Group-37" transform="translate(937.000000, 1205.000000)">
                    <g id="Group-36">
                        <rect id="Rectangle" x="0.5" y="0.5" width="39" height="39"></rect>
                        <rect id="Rectangle" x="39.5" y="0.5" width="39" height="39"></rect>
                        <rect id="Rectangle" x="78.5" y="0.5" width="39" height="39"></rect>
                        <rect id="Rectangle" x="117.5" y="0.5" width="39" height="39"></rect>
                        <rect id="Rectangle" x="156.5" y="0.5" width="39" height="39"></rect>
                        <rect id="Rectangle" x="195.5" y="0.5" width="39" height="39"></rect>
                        <rect id="Rectangle" x="234.5" y="0.5" width="39" height="39"></rect>
                        <rect id="Rectangle" x="273.5" y="0.5" width="39" height="39"></rect>
                    </g>
                    <g id="Group-36" transform="translate(0.000000, 39.000000)">
                        <rect id="Rectangle" x="0.5" y="0.5" width="39" height="39"></rect>
                        <rect id="Rectangle" x="39.5" y="0.5" width="39" height="39"></rect>
                        <rect id="Rectangle" x="78.5" y="0.5" width="39" height="39"></rect>
                        <rect id="Rectangle" x="117.5" y="0.5" width="39" height="39"></rect>
                        <rect id="Rectangle" x="156.5" y="0.5" width="39" height="39"></rect>
                        <rect id="Rectangle" x="195.5" y="0.5" width="39" height="39"></rect>
                        <rect id="Rectangle" x="234.5" y="0.5" width="39" height="39"></rect>
                        <rect id="Rectangle" x="273.5" y="0.5" width="39" height="39"></rect>
                    </g>
                    <g id="Group-36" transform="translate(0.000000, 78.000000)">
                        <rect id="Rectangle" x="0.5" y="0.5" width="39" height="39"></rect>
                        <rect id="Rectangle" x="39.5" y="0.5" width="39" height="39"></rect>
                        <rect id="Rectangle" x="78.5" y="0.5" width="39" height="39"></rect>
                        <rect id="Rectangle" x="117.5" y="0.5" width="39" height="39"></rect>
                        <rect id="Rectangle" x="156.5" y="0.5" width="39" height="39"></rect>
                        <rect id="Rectangle" x="195.5" y="0.5" width="39" height="39"></rect>
                        <rect id="Rectangle" x="234.5" y="0.5" width="39" height="39"></rect>
                        <rect id="Rectangle" x="273.5" y="0.5" width="39" height="39"></rect>
                    </g>
                    <g id="Group-36" transform="translate(0.000000, 117.000000)">
                        <rect id="Rectangle" x="0.5" y="0.5" width="39" height="39"></rect>
                        <rect id="Rectangle" x="39.5" y="0.5" width="39" height="39"></rect>
                        <rect id="Rectangle" x="78.5" y="0.5" width="39" height="39"></rect>
                        <rect id="Rectangle" x="117.5" y="0.5" width="39" height="39"></rect>
                        <rect id="Rectangle" x="156.5" y="0.5" width="39" height="39"></rect>
                        <rect id="Rectangle" x="195.5" y="0.5" width="39" height="39"></rect>
                        <rect id="Rectangle" x="234.5" y="0.5" width="39" height="39"></rect>
                        <rect id="Rectangle" x="273.5" y="0.5" width="39" height="39"></rect>
                    </g>
                    <g id="Group-36" transform="translate(0.000000, 156.000000)">
                        <rect id="Rectangle" x="0.5" y="0.5" width="39" height="39"></rect>
                        <rect id="Rectangle" x="39.5" y="0.5" width="39" height="39"></rect>
                        <rect id="Rectangle" x="78.5" y="0.5" width="39" height="39"></rect>
                        <rect id="Rectangle" x="117.5" y="0.5" width="39" height="39"></rect>
                        <rect id="Rectangle" x="156.5" y="0.5" width="39" height="39"></rect>
                        <rect id="Rectangle" x="195.5" y="0.5" width="39" height="39"></rect>
                        <rect id="Rectangle" x="234.5" y="0.5" width="39" height="39"></rect>
                        <rect id="Rectangle" x="273.5" y="0.5" width="39" height="39"></rect>
                    </g>
                    <g id="Group-36" transform="translate(0.000000, 195.000000)">
                        <rect id="Rectangle" x="0.5" y="0.5" width="39" height="39"></rect>
                        <rect id="Rectangle" x="39.5" y="0.5" width="39" height="39"></rect>
                        <rect id="Rectangle" x="78.5" y="0.5" width="39" height="39"></rect>
                        <rect id="Rectangle" x="117.5" y="0.5" width="39" height="39"></rect>
                        <rect id="Rectangle" x="156.5" y="0.5" width="39" height="39"></rect>
                        <rect id="Rectangle" x="195.5" y="0.5" width="39" height="39"></rect>
                        <rect id="Rectangle" x="234.5" y="0.5" width="39" height="39"></rect>
                        <rect id="Rectangle" x="273.5" y="0.5" width="39" height="39"></rect>
                    </g>
                    <g id="Group-36" transform="translate(0.000000, 234.000000)">
                        <rect id="Rectangle" x="0.5" y="0.5" width="39" height="39"></rect>
                        <rect id="Rectangle" x="39.5" y="0.5" width="39" height="39"></rect>
                        <rect id="Rectangle" x="78.5" y="0.5" width="39" height="39"></rect>
                        <rect id="Rectangle" x="117.5" y="0.5" width="39" height="39"></rect>
                        <rect id="Rectangle" x="156.5" y="0.5" width="39" height="39"></rect>
                        <rect id="Rectangle" x="195.5" y="0.5" width="39" height="39"></rect>
                        <rect id="Rectangle" x="234.5" y="0.5" width="39" height="39"></rect>
                        <rect id="Rectangle" x="273.5" y="0.5" width="39" height="39"></rect>
                    </g>
                    <g id="Group-36" transform="translate(0.000000, 273.000000)">
                        <rect id="Rectangle" x="0.5" y="0.5" width="39" height="39"></rect>
                        <rect id="Rectangle" x="39.5" y="0.5" width="39" height="39"></rect>
                        <rect id="Rectangle" x="78.5" y="0.5" width="39" height="39"></rect>
                        <rect id="Rectangle" x="117.5" y="0.5" width="39" height="39"></rect>
                        <rect id="Rectangle" x="156.5" y="0.5" width="39" height="39"></rect>
                        <rect id="Rectangle" x="195.5" y="0.5" width="39" height="39"></rect>
                        <rect id="Rectangle" x="234.5" y="0.5" width="39" height="39"></rect>
                        <rect id="Rectangle" x="273.5" y="0.5" width="39" height="39"></rect>
                    </g>
                </g>
            </g>
            <g id="Group-39" stroke-linecap="square">
                <path d="M0.5,1.5 L61.5,1.5" id="Line-6"></path>
                <path d="M0.5,2 L0.5,63" id="Line-7"></path>
                <g id="Group-40" transform="translate(1239.000000, 33.500000) scale(-1, 1) translate(-1239.000000, -33.500000) translate(1208.000000, 2.000000)">
                    <path d="M0.5,1.5 L61.5,1.5" id="Line-6" transform="translate(31.000000, 1.000000) scale(-1, -1) translate(-31.000000, -1.000000) "></path>
                    <path d="M0.5,2 L0.5,63" id="Line-7" transform="translate(0.500000, 32.500000) scale(-1, -1) translate(-0.500000, -32.500000) "></path>
                </g>
            </g>
        </g>
    </g>
</svg>