<?xml version="1.0" encoding="UTF-8"?>
<svg width="1488px" height="705px" viewBox="0 0 1488 705" version="1.1" xmlns="http://www.w3.org/2000/svg" xmlns:xlink="http://www.w3.org/1999/xlink">
    <!-- Generator: Sketch 47.1 (45422) - http://www.bohemiancoding.com/sketch -->
    <title>Group 16</title>
    <desc>Created with Sketch.</desc>
    <defs></defs>
    <g id="Page-1" stroke="none" stroke-width="1" fill="none" fill-rule="evenodd">
        <g id="Group-16">
            <g id="Group-11" transform="translate(1295.000000, 0.000000)" fill="#CFD4D8">
                <g id="Group-10">
                    <ellipse id="Oval-2" cx="2.37619699" cy="2" rx="2.37619699" ry="2"></ellipse>
                    <ellipse id="Oval-2" cx="21.2009576" cy="2" rx="2.37619699" ry="2"></ellipse>
                    <ellipse id="Oval-2" cx="40.0257182" cy="2" rx="2.37619699" ry="2"></ellipse>
                    <ellipse id="Oval-2" cx="58.8504788" cy="2" rx="2.37619699" ry="2"></ellipse>
                    <ellipse id="Oval-2" cx="77.6752394" cy="2" rx="2.37619699" ry="2"></ellipse>
                    <ellipse id="Oval-2" cx="96.5" cy="2" rx="2.37619699" ry="2"></ellipse>
                    <ellipse id="Oval-2" cx="115.324761" cy="2" rx="2.37619699" ry="2"></ellipse>
                    <ellipse id="Oval-2" cx="134.149521" cy="2" rx="2.37619699" ry="2"></ellipse>
                    <ellipse id="Oval-2" cx="152.974282" cy="2" rx="2.37619699" ry="2"></ellipse>
                    <ellipse id="Oval-2" cx="171.799042" cy="2" rx="2.37619699" ry="2"></ellipse>
                    <ellipse id="Oval-2" cx="190.623803" cy="2" rx="2.37619699" ry="2"></ellipse>
                </g>
                <g id="Group-10" transform="translate(0.000000, 19.000000)">
                    <ellipse id="Oval-2" cx="2.37619699" cy="2" rx="2.37619699" ry="2"></ellipse>
                    <ellipse id="Oval-2" cx="21.2009576" cy="2" rx="2.37619699" ry="2"></ellipse>
                    <ellipse id="Oval-2" cx="40.0257182" cy="2" rx="2.37619699" ry="2"></ellipse>
                    <ellipse id="Oval-2" cx="58.8504788" cy="2" rx="2.37619699" ry="2"></ellipse>
                    <ellipse id="Oval-2" cx="77.6752394" cy="2" rx="2.37619699" ry="2"></ellipse>
                    <ellipse id="Oval-2" cx="96.5" cy="2" rx="2.37619699" ry="2"></ellipse>
                    <ellipse id="Oval-2" cx="115.324761" cy="2" rx="2.37619699" ry="2"></ellipse>
                    <ellipse id="Oval-2" cx="134.149521" cy="2" rx="2.37619699" ry="2"></ellipse>
                    <ellipse id="Oval-2" cx="152.974282" cy="2" rx="2.37619699" ry="2"></ellipse>
                    <ellipse id="Oval-2" cx="171.799042" cy="2" rx="2.37619699" ry="2"></ellipse>
                    <ellipse id="Oval-2" cx="190.623803" cy="2" rx="2.37619699" ry="2"></ellipse>
                </g>
                <g id="Group-10" transform="translate(0.000000, 38.000000)">
                    <ellipse id="Oval-2" cx="2.37619699" cy="2" rx="2.37619699" ry="2"></ellipse>
                    <ellipse id="Oval-2" cx="21.2009576" cy="2" rx="2.37619699" ry="2"></ellipse>
                    <ellipse id="Oval-2" cx="40.0257182" cy="2" rx="2.37619699" ry="2"></ellipse>
                    <ellipse id="Oval-2" cx="58.8504788" cy="2" rx="2.37619699" ry="2"></ellipse>
                    <ellipse id="Oval-2" cx="77.6752394" cy="2" rx="2.37619699" ry="2"></ellipse>
                    <ellipse id="Oval-2" cx="96.5" cy="2" rx="2.37619699" ry="2"></ellipse>
                    <ellipse id="Oval-2" cx="115.324761" cy="2" rx="2.37619699" ry="2"></ellipse>
                    <ellipse id="Oval-2" cx="134.149521" cy="2" rx="2.37619699" ry="2"></ellipse>
                    <ellipse id="Oval-2" cx="152.974282" cy="2" rx="2.37619699" ry="2"></ellipse>
                    <ellipse id="Oval-2" cx="171.799042" cy="2" rx="2.37619699" ry="2"></ellipse>
                    <ellipse id="Oval-2" cx="190.623803" cy="2" rx="2.37619699" ry="2"></ellipse>
                </g>
                <g id="Group-10" transform="translate(0.000000, 58.000000)">
                    <ellipse id="Oval-2" cx="2.37619699" cy="2" rx="2.37619699" ry="2"></ellipse>
                    <ellipse id="Oval-2" cx="21.2009576" cy="2" rx="2.37619699" ry="2"></ellipse>
                    <ellipse id="Oval-2" cx="40.0257182" cy="2" rx="2.37619699" ry="2"></ellipse>
                    <ellipse id="Oval-2" cx="58.8504788" cy="2" rx="2.37619699" ry="2"></ellipse>
                    <ellipse id="Oval-2" cx="77.6752394" cy="2" rx="2.37619699" ry="2"></ellipse>
                    <ellipse id="Oval-2" cx="96.5" cy="2" rx="2.37619699" ry="2"></ellipse>
                    <ellipse id="Oval-2" cx="115.324761" cy="2" rx="2.37619699" ry="2"></ellipse>
                    <ellipse id="Oval-2" cx="134.149521" cy="2" rx="2.37619699" ry="2"></ellipse>
                    <ellipse id="Oval-2" cx="152.974282" cy="2" rx="2.37619699" ry="2"></ellipse>
                    <ellipse id="Oval-2" cx="171.799042" cy="2" rx="2.37619699" ry="2"></ellipse>
                    <ellipse id="Oval-2" cx="190.623803" cy="2" rx="2.37619699" ry="2"></ellipse>
                </g>
                <g id="Group-10" transform="translate(0.000000, 76.000000)">
                    <ellipse id="Oval-2" cx="2.37619699" cy="2" rx="2.37619699" ry="2"></ellipse>
                    <ellipse id="Oval-2" cx="21.2009576" cy="2" rx="2.37619699" ry="2"></ellipse>
                    <ellipse id="Oval-2" cx="40.0257182" cy="2" rx="2.37619699" ry="2"></ellipse>
                    <ellipse id="Oval-2" cx="58.8504788" cy="2" rx="2.37619699" ry="2"></ellipse>
                    <ellipse id="Oval-2" cx="77.6752394" cy="2" rx="2.37619699" ry="2"></ellipse>
                    <ellipse id="Oval-2" cx="96.5" cy="2" rx="2.37619699" ry="2"></ellipse>
                    <ellipse id="Oval-2" cx="115.324761" cy="2" rx="2.37619699" ry="2"></ellipse>
                    <ellipse id="Oval-2" cx="134.149521" cy="2" rx="2.37619699" ry="2"></ellipse>
                    <ellipse id="Oval-2" cx="152.974282" cy="2" rx="2.37619699" ry="2"></ellipse>
                    <ellipse id="Oval-2" cx="171.799042" cy="2" rx="2.37619699" ry="2"></ellipse>
                    <ellipse id="Oval-2" cx="190.623803" cy="2" rx="2.37619699" ry="2"></ellipse>
                </g>
                <g id="Group-10" transform="translate(0.000000, 96.000000)">
                    <ellipse id="Oval-2" cx="2.37619699" cy="2" rx="2.37619699" ry="2"></ellipse>
                    <ellipse id="Oval-2" cx="21.2009576" cy="2" rx="2.37619699" ry="2"></ellipse>
                    <ellipse id="Oval-2" cx="40.0257182" cy="2" rx="2.37619699" ry="2"></ellipse>
                    <ellipse id="Oval-2" cx="58.8504788" cy="2" rx="2.37619699" ry="2"></ellipse>
                    <ellipse id="Oval-2" cx="77.6752394" cy="2" rx="2.37619699" ry="2"></ellipse>
                    <ellipse id="Oval-2" cx="96.5" cy="2" rx="2.37619699" ry="2"></ellipse>
                    <ellipse id="Oval-2" cx="115.324761" cy="2" rx="2.37619699" ry="2"></ellipse>
                    <ellipse id="Oval-2" cx="134.149521" cy="2" rx="2.37619699" ry="2"></ellipse>
                    <ellipse id="Oval-2" cx="152.974282" cy="2" rx="2.37619699" ry="2"></ellipse>
                    <ellipse id="Oval-2" cx="171.799042" cy="2" rx="2.37619699" ry="2"></ellipse>
                    <ellipse id="Oval-2" cx="190.623803" cy="2" rx="2.37619699" ry="2"></ellipse>
                </g>
                <g id="Group-10" transform="translate(0.000000, 115.000000)">
                    <ellipse id="Oval-2" cx="2.37619699" cy="2" rx="2.37619699" ry="2"></ellipse>
                    <ellipse id="Oval-2" cx="21.2009576" cy="2" rx="2.37619699" ry="2"></ellipse>
                    <ellipse id="Oval-2" cx="40.0257182" cy="2" rx="2.37619699" ry="2"></ellipse>
                    <ellipse id="Oval-2" cx="58.8504788" cy="2" rx="2.37619699" ry="2"></ellipse>
                    <ellipse id="Oval-2" cx="77.6752394" cy="2" rx="2.37619699" ry="2"></ellipse>
                    <ellipse id="Oval-2" cx="96.5" cy="2" rx="2.37619699" ry="2"></ellipse>
                    <ellipse id="Oval-2" cx="115.324761" cy="2" rx="2.37619699" ry="2"></ellipse>
                    <ellipse id="Oval-2" cx="134.149521" cy="2" rx="2.37619699" ry="2"></ellipse>
                    <ellipse id="Oval-2" cx="152.974282" cy="2" rx="2.37619699" ry="2"></ellipse>
                    <ellipse id="Oval-2" cx="171.799042" cy="2" rx="2.37619699" ry="2"></ellipse>
                    <ellipse id="Oval-2" cx="190.623803" cy="2" rx="2.37619699" ry="2"></ellipse>
                </g>
                <g id="Group-10" transform="translate(0.000000, 134.000000)">
                    <ellipse id="Oval-2" cx="2.37619699" cy="2" rx="2.37619699" ry="2"></ellipse>
                    <ellipse id="Oval-2" cx="21.2009576" cy="2" rx="2.37619699" ry="2"></ellipse>
                    <ellipse id="Oval-2" cx="40.0257182" cy="2" rx="2.37619699" ry="2"></ellipse>
                    <ellipse id="Oval-2" cx="58.8504788" cy="2" rx="2.37619699" ry="2"></ellipse>
                    <ellipse id="Oval-2" cx="77.6752394" cy="2" rx="2.37619699" ry="2"></ellipse>
                    <ellipse id="Oval-2" cx="96.5" cy="2" rx="2.37619699" ry="2"></ellipse>
                    <ellipse id="Oval-2" cx="115.324761" cy="2" rx="2.37619699" ry="2"></ellipse>
                    <ellipse id="Oval-2" cx="134.149521" cy="2" rx="2.37619699" ry="2"></ellipse>
                    <ellipse id="Oval-2" cx="152.974282" cy="2" rx="2.37619699" ry="2"></ellipse>
                    <ellipse id="Oval-2" cx="171.799042" cy="2" rx="2.37619699" ry="2"></ellipse>
                    <ellipse id="Oval-2" cx="190.623803" cy="2" rx="2.37619699" ry="2"></ellipse>
                </g>
                <g id="Group-10" transform="translate(0.000000, 153.000000)">
                    <ellipse id="Oval-2" cx="2.37619699" cy="2" rx="2.37619699" ry="2"></ellipse>
                    <ellipse id="Oval-2" cx="21.2009576" cy="2" rx="2.37619699" ry="2"></ellipse>
                    <ellipse id="Oval-2" cx="40.0257182" cy="2" rx="2.37619699" ry="2"></ellipse>
                    <ellipse id="Oval-2" cx="58.8504788" cy="2" rx="2.37619699" ry="2"></ellipse>
                    <ellipse id="Oval-2" cx="77.6752394" cy="2" rx="2.37619699" ry="2"></ellipse>
                    <ellipse id="Oval-2" cx="96.5" cy="2" rx="2.37619699" ry="2"></ellipse>
                    <ellipse id="Oval-2" cx="115.324761" cy="2" rx="2.37619699" ry="2"></ellipse>
                    <ellipse id="Oval-2" cx="134.149521" cy="2" rx="2.37619699" ry="2"></ellipse>
                    <ellipse id="Oval-2" cx="152.974282" cy="2" rx="2.37619699" ry="2"></ellipse>
                    <ellipse id="Oval-2" cx="171.799042" cy="2" rx="2.37619699" ry="2"></ellipse>
                    <ellipse id="Oval-2" cx="190.623803" cy="2" rx="2.37619699" ry="2"></ellipse>
                </g>
                <g id="Group-10" transform="translate(0.000000, 173.000000)">
                    <ellipse id="Oval-2" cx="2.37619699" cy="2" rx="2.37619699" ry="2"></ellipse>
                    <ellipse id="Oval-2" cx="21.2009576" cy="2" rx="2.37619699" ry="2"></ellipse>
                    <ellipse id="Oval-2" cx="40.0257182" cy="2" rx="2.37619699" ry="2"></ellipse>
                    <ellipse id="Oval-2" cx="58.8504788" cy="2" rx="2.37619699" ry="2"></ellipse>
                    <ellipse id="Oval-2" cx="77.6752394" cy="2" rx="2.37619699" ry="2"></ellipse>
                    <ellipse id="Oval-2" cx="96.5" cy="2" rx="2.37619699" ry="2"></ellipse>
                    <ellipse id="Oval-2" cx="115.324761" cy="2" rx="2.37619699" ry="2"></ellipse>
                    <ellipse id="Oval-2" cx="134.149521" cy="2" rx="2.37619699" ry="2"></ellipse>
                    <ellipse id="Oval-2" cx="152.974282" cy="2" rx="2.37619699" ry="2"></ellipse>
                    <ellipse id="Oval-2" cx="171.799042" cy="2" rx="2.37619699" ry="2"></ellipse>
                    <ellipse id="Oval-2" cx="190.623803" cy="2" rx="2.37619699" ry="2"></ellipse>
                </g>
            </g>
            <g id="Group-11" transform="translate(0.000000, 91.000000)" fill="#CFD4D8">
                <g id="Group-10">
                    <ellipse id="Oval-2" cx="3.48426813" cy="2.5" rx="3.48426813" ry="2.5"></ellipse>
                    <ellipse id="Oval-2" cx="31.0874145" cy="2.5" rx="3.48426813" ry="2.5"></ellipse>
                    <ellipse id="Oval-2" cx="58.6905609" cy="2.5" rx="3.48426813" ry="2.5"></ellipse>
                    <ellipse id="Oval-2" cx="86.2937073" cy="2.5" rx="3.48426813" ry="2.5"></ellipse>
                    <ellipse id="Oval-2" cx="113.896854" cy="2.5" rx="3.48426813" ry="2.5"></ellipse>
                    <ellipse id="Oval-2" cx="141.5" cy="2.5" rx="3.48426813" ry="2.5"></ellipse>
                    <ellipse id="Oval-2" cx="169.103146" cy="2.5" rx="3.48426813" ry="2.5"></ellipse>
                    <ellipse id="Oval-2" cx="196.706293" cy="2.5" rx="3.48426813" ry="2.5"></ellipse>
                    <ellipse id="Oval-2" cx="224.309439" cy="2.5" rx="3.48426813" ry="2.5"></ellipse>
                    <ellipse id="Oval-2" cx="251.912585" cy="2.5" rx="3.48426813" ry="2.5"></ellipse>
                    <ellipse id="Oval-2" cx="279.515732" cy="2.5" rx="3.48426813" ry="2.5"></ellipse>
                </g>
                <g id="Group-10" transform="translate(0.000000, 26.000000)">
                    <ellipse id="Oval-2" cx="3.48426813" cy="2.5" rx="3.48426813" ry="2.5"></ellipse>
                    <ellipse id="Oval-2" cx="31.0874145" cy="2.5" rx="3.48426813" ry="2.5"></ellipse>
                    <ellipse id="Oval-2" cx="58.6905609" cy="2.5" rx="3.48426813" ry="2.5"></ellipse>
                    <ellipse id="Oval-2" cx="86.2937073" cy="2.5" rx="3.48426813" ry="2.5"></ellipse>
                    <ellipse id="Oval-2" cx="113.896854" cy="2.5" rx="3.48426813" ry="2.5"></ellipse>
                    <ellipse id="Oval-2" cx="141.5" cy="2.5" rx="3.48426813" ry="2.5"></ellipse>
                    <ellipse id="Oval-2" cx="169.103146" cy="2.5" rx="3.48426813" ry="2.5"></ellipse>
                    <ellipse id="Oval-2" cx="196.706293" cy="2.5" rx="3.48426813" ry="2.5"></ellipse>
                    <ellipse id="Oval-2" cx="224.309439" cy="2.5" rx="3.48426813" ry="2.5"></ellipse>
                    <ellipse id="Oval-2" cx="251.912585" cy="2.5" rx="3.48426813" ry="2.5"></ellipse>
                    <ellipse id="Oval-2" cx="279.515732" cy="2.5" rx="3.48426813" ry="2.5"></ellipse>
                </g>
                <g id="Group-10" transform="translate(0.000000, 58.000000)">
                    <ellipse id="Oval-2" cx="3.48426813" cy="2.5" rx="3.48426813" ry="2.5"></ellipse>
                    <ellipse id="Oval-2" cx="31.0874145" cy="2.5" rx="3.48426813" ry="2.5"></ellipse>
                    <ellipse id="Oval-2" cx="58.6905609" cy="2.5" rx="3.48426813" ry="2.5"></ellipse>
                    <ellipse id="Oval-2" cx="86.2937073" cy="2.5" rx="3.48426813" ry="2.5"></ellipse>
                    <ellipse id="Oval-2" cx="113.896854" cy="2.5" rx="3.48426813" ry="2.5"></ellipse>
                    <ellipse id="Oval-2" cx="141.5" cy="2.5" rx="3.48426813" ry="2.5"></ellipse>
                    <ellipse id="Oval-2" cx="169.103146" cy="2.5" rx="3.48426813" ry="2.5"></ellipse>
                    <ellipse id="Oval-2" cx="196.706293" cy="2.5" rx="3.48426813" ry="2.5"></ellipse>
                    <ellipse id="Oval-2" cx="224.309439" cy="2.5" rx="3.48426813" ry="2.5"></ellipse>
                    <ellipse id="Oval-2" cx="251.912585" cy="2.5" rx="3.48426813" ry="2.5"></ellipse>
                    <ellipse id="Oval-2" cx="279.515732" cy="2.5" rx="3.48426813" ry="2.5"></ellipse>
                </g>
                <g id="Group-10" transform="translate(0.000000, 84.000000)">
                    <ellipse id="Oval-2" cx="3.48426813" cy="2.5" rx="3.48426813" ry="2.5"></ellipse>
                    <ellipse id="Oval-2" cx="31.0874145" cy="2.5" rx="3.48426813" ry="2.5"></ellipse>
                    <ellipse id="Oval-2" cx="58.6905609" cy="2.5" rx="3.48426813" ry="2.5"></ellipse>
                    <ellipse id="Oval-2" cx="86.2937073" cy="2.5" rx="3.48426813" ry="2.5"></ellipse>
                    <ellipse id="Oval-2" cx="113.896854" cy="2.5" rx="3.48426813" ry="2.5"></ellipse>
                    <ellipse id="Oval-2" cx="141.5" cy="2.5" rx="3.48426813" ry="2.5"></ellipse>
                    <ellipse id="Oval-2" cx="169.103146" cy="2.5" rx="3.48426813" ry="2.5"></ellipse>
                    <ellipse id="Oval-2" cx="196.706293" cy="2.5" rx="3.48426813" ry="2.5"></ellipse>
                    <ellipse id="Oval-2" cx="224.309439" cy="2.5" rx="3.48426813" ry="2.5"></ellipse>
                    <ellipse id="Oval-2" cx="251.912585" cy="2.5" rx="3.48426813" ry="2.5"></ellipse>
                    <ellipse id="Oval-2" cx="279.515732" cy="2.5" rx="3.48426813" ry="2.5"></ellipse>
                </g>
                <g id="Group-10" transform="translate(0.000000, 110.000000)">
                    <ellipse id="Oval-2" cx="3.48426813" cy="2.5" rx="3.48426813" ry="2.5"></ellipse>
                    <ellipse id="Oval-2" cx="31.0874145" cy="2.5" rx="3.48426813" ry="2.5"></ellipse>
                    <ellipse id="Oval-2" cx="58.6905609" cy="2.5" rx="3.48426813" ry="2.5"></ellipse>
                    <ellipse id="Oval-2" cx="86.2937073" cy="2.5" rx="3.48426813" ry="2.5"></ellipse>
                    <ellipse id="Oval-2" cx="113.896854" cy="2.5" rx="3.48426813" ry="2.5"></ellipse>
                    <ellipse id="Oval-2" cx="141.5" cy="2.5" rx="3.48426813" ry="2.5"></ellipse>
                    <ellipse id="Oval-2" cx="169.103146" cy="2.5" rx="3.48426813" ry="2.5"></ellipse>
                    <ellipse id="Oval-2" cx="196.706293" cy="2.5" rx="3.48426813" ry="2.5"></ellipse>
                    <ellipse id="Oval-2" cx="224.309439" cy="2.5" rx="3.48426813" ry="2.5"></ellipse>
                    <ellipse id="Oval-2" cx="251.912585" cy="2.5" rx="3.48426813" ry="2.5"></ellipse>
                    <ellipse id="Oval-2" cx="279.515732" cy="2.5" rx="3.48426813" ry="2.5"></ellipse>
                </g>
                <g id="Group-10" transform="translate(0.000000, 141.000000)">
                    <ellipse id="Oval-2" cx="3.48426813" cy="2.5" rx="3.48426813" ry="2.5"></ellipse>
                    <ellipse id="Oval-2" cx="31.0874145" cy="2.5" rx="3.48426813" ry="2.5"></ellipse>
                    <ellipse id="Oval-2" cx="58.6905609" cy="2.5" rx="3.48426813" ry="2.5"></ellipse>
                    <ellipse id="Oval-2" cx="86.2937073" cy="2.5" rx="3.48426813" ry="2.5"></ellipse>
                    <ellipse id="Oval-2" cx="113.896854" cy="2.5" rx="3.48426813" ry="2.5"></ellipse>
                    <ellipse id="Oval-2" cx="141.5" cy="2.5" rx="3.48426813" ry="2.5"></ellipse>
                    <ellipse id="Oval-2" cx="169.103146" cy="2.5" rx="3.48426813" ry="2.5"></ellipse>
                    <ellipse id="Oval-2" cx="196.706293" cy="2.5" rx="3.48426813" ry="2.5"></ellipse>
                    <ellipse id="Oval-2" cx="224.309439" cy="2.5" rx="3.48426813" ry="2.5"></ellipse>
                    <ellipse id="Oval-2" cx="251.912585" cy="2.5" rx="3.48426813" ry="2.5"></ellipse>
                    <ellipse id="Oval-2" cx="279.515732" cy="2.5" rx="3.48426813" ry="2.5"></ellipse>
                </g>
                <g id="Group-10" transform="translate(0.000000, 168.000000)">
                    <ellipse id="Oval-2" cx="3.48426813" cy="2.5" rx="3.48426813" ry="2.5"></ellipse>
                    <ellipse id="Oval-2" cx="31.0874145" cy="2.5" rx="3.48426813" ry="2.5"></ellipse>
                    <ellipse id="Oval-2" cx="58.6905609" cy="2.5" rx="3.48426813" ry="2.5"></ellipse>
                    <ellipse id="Oval-2" cx="86.2937073" cy="2.5" rx="3.48426813" ry="2.5"></ellipse>
                    <ellipse id="Oval-2" cx="113.896854" cy="2.5" rx="3.48426813" ry="2.5"></ellipse>
                    <ellipse id="Oval-2" cx="141.5" cy="2.5" rx="3.48426813" ry="2.5"></ellipse>
                    <ellipse id="Oval-2" cx="169.103146" cy="2.5" rx="3.48426813" ry="2.5"></ellipse>
                    <ellipse id="Oval-2" cx="196.706293" cy="2.5" rx="3.48426813" ry="2.5"></ellipse>
                    <ellipse id="Oval-2" cx="224.309439" cy="2.5" rx="3.48426813" ry="2.5"></ellipse>
                    <ellipse id="Oval-2" cx="251.912585" cy="2.5" rx="3.48426813" ry="2.5"></ellipse>
                    <ellipse id="Oval-2" cx="279.515732" cy="2.5" rx="3.48426813" ry="2.5"></ellipse>
                </g>
                <g id="Group-10" transform="translate(0.000000, 199.000000)">
                    <ellipse id="Oval-2" cx="3.48426813" cy="2.5" rx="3.48426813" ry="2.5"></ellipse>
                    <ellipse id="Oval-2" cx="31.0874145" cy="2.5" rx="3.48426813" ry="2.5"></ellipse>
                    <ellipse id="Oval-2" cx="58.6905609" cy="2.5" rx="3.48426813" ry="2.5"></ellipse>
                    <ellipse id="Oval-2" cx="86.2937073" cy="2.5" rx="3.48426813" ry="2.5"></ellipse>
                    <ellipse id="Oval-2" cx="113.896854" cy="2.5" rx="3.48426813" ry="2.5"></ellipse>
                    <ellipse id="Oval-2" cx="141.5" cy="2.5" rx="3.48426813" ry="2.5"></ellipse>
                    <ellipse id="Oval-2" cx="169.103146" cy="2.5" rx="3.48426813" ry="2.5"></ellipse>
                    <ellipse id="Oval-2" cx="196.706293" cy="2.5" rx="3.48426813" ry="2.5"></ellipse>
                    <ellipse id="Oval-2" cx="224.309439" cy="2.5" rx="3.48426813" ry="2.5"></ellipse>
                    <ellipse id="Oval-2" cx="251.912585" cy="2.5" rx="3.48426813" ry="2.5"></ellipse>
                    <ellipse id="Oval-2" cx="279.515732" cy="2.5" rx="3.48426813" ry="2.5"></ellipse>
                </g>
                <g id="Group-10" transform="translate(0.000000, 225.000000)">
                    <ellipse id="Oval-2" cx="3.48426813" cy="2.5" rx="3.48426813" ry="2.5"></ellipse>
                    <ellipse id="Oval-2" cx="31.0874145" cy="2.5" rx="3.48426813" ry="2.5"></ellipse>
                    <ellipse id="Oval-2" cx="58.6905609" cy="2.5" rx="3.48426813" ry="2.5"></ellipse>
                    <ellipse id="Oval-2" cx="86.2937073" cy="2.5" rx="3.48426813" ry="2.5"></ellipse>
                    <ellipse id="Oval-2" cx="113.896854" cy="2.5" rx="3.48426813" ry="2.5"></ellipse>
                    <ellipse id="Oval-2" cx="141.5" cy="2.5" rx="3.48426813" ry="2.5"></ellipse>
                    <ellipse id="Oval-2" cx="169.103146" cy="2.5" rx="3.48426813" ry="2.5"></ellipse>
                    <ellipse id="Oval-2" cx="196.706293" cy="2.5" rx="3.48426813" ry="2.5"></ellipse>
                    <ellipse id="Oval-2" cx="224.309439" cy="2.5" rx="3.48426813" ry="2.5"></ellipse>
                    <ellipse id="Oval-2" cx="251.912585" cy="2.5" rx="3.48426813" ry="2.5"></ellipse>
                    <ellipse id="Oval-2" cx="279.515732" cy="2.5" rx="3.48426813" ry="2.5"></ellipse>
                </g>
                <g id="Group-10" transform="translate(0.000000, 257.000000)">
                    <ellipse id="Oval-2" cx="3.48426813" cy="2.5" rx="3.48426813" ry="2.5"></ellipse>
                    <ellipse id="Oval-2" cx="31.0874145" cy="2.5" rx="3.48426813" ry="2.5"></ellipse>
                    <ellipse id="Oval-2" cx="58.6905609" cy="2.5" rx="3.48426813" ry="2.5"></ellipse>
                    <ellipse id="Oval-2" cx="86.2937073" cy="2.5" rx="3.48426813" ry="2.5"></ellipse>
                    <ellipse id="Oval-2" cx="113.896854" cy="2.5" rx="3.48426813" ry="2.5"></ellipse>
                    <ellipse id="Oval-2" cx="141.5" cy="2.5" rx="3.48426813" ry="2.5"></ellipse>
                    <ellipse id="Oval-2" cx="169.103146" cy="2.5" rx="3.48426813" ry="2.5"></ellipse>
                    <ellipse id="Oval-2" cx="196.706293" cy="2.5" rx="3.48426813" ry="2.5"></ellipse>
                    <ellipse id="Oval-2" cx="224.309439" cy="2.5" rx="3.48426813" ry="2.5"></ellipse>
                    <ellipse id="Oval-2" cx="251.912585" cy="2.5" rx="3.48426813" ry="2.5"></ellipse>
                    <ellipse id="Oval-2" cx="279.515732" cy="2.5" rx="3.48426813" ry="2.5"></ellipse>
                </g>
            </g>
            <g id="Group-11" transform="translate(483.000000, 429.000000)" fill="#EEEEEE">
                <g id="Group-10">
                    <ellipse id="Oval-2" cx="3.70588235" cy="3.5" rx="3.70588235" ry="3.5"></ellipse>
                    <ellipse id="Oval-2" cx="33.0647059" cy="3.5" rx="3.70588235" ry="3.5"></ellipse>
                    <ellipse id="Oval-2" cx="62.4235294" cy="3.5" rx="3.70588235" ry="3.5"></ellipse>
                    <ellipse id="Oval-2" cx="91.7823529" cy="3.5" rx="3.70588235" ry="3.5"></ellipse>
                    <ellipse id="Oval-2" cx="121.141176" cy="3.5" rx="3.70588235" ry="3.5"></ellipse>
                    <ellipse id="Oval-2" cx="150.5" cy="3.5" rx="3.70588235" ry="3.5"></ellipse>
                    <ellipse id="Oval-2" cx="179.858824" cy="3.5" rx="3.70588235" ry="3.5"></ellipse>
                    <ellipse id="Oval-2" cx="209.217647" cy="3.5" rx="3.70588235" ry="3.5"></ellipse>
                    <ellipse id="Oval-2" cx="238.576471" cy="3.5" rx="3.70588235" ry="3.5"></ellipse>
                    <ellipse id="Oval-2" cx="267.935294" cy="3.5" rx="3.70588235" ry="3.5"></ellipse>
                    <ellipse id="Oval-2" cx="297.294118" cy="3.5" rx="3.70588235" ry="3.5"></ellipse>
                </g>
                <g id="Group-10" transform="translate(0.000000, 30.000000)">
                    <ellipse id="Oval-2" cx="3.70588235" cy="3.5" rx="3.70588235" ry="3.5"></ellipse>
                    <ellipse id="Oval-2" cx="33.0647059" cy="3.5" rx="3.70588235" ry="3.5"></ellipse>
                    <ellipse id="Oval-2" cx="62.4235294" cy="3.5" rx="3.70588235" ry="3.5"></ellipse>
                    <ellipse id="Oval-2" cx="91.7823529" cy="3.5" rx="3.70588235" ry="3.5"></ellipse>
                    <ellipse id="Oval-2" cx="121.141176" cy="3.5" rx="3.70588235" ry="3.5"></ellipse>
                    <ellipse id="Oval-2" cx="150.5" cy="3.5" rx="3.70588235" ry="3.5"></ellipse>
                    <ellipse id="Oval-2" cx="179.858824" cy="3.5" rx="3.70588235" ry="3.5"></ellipse>
                    <ellipse id="Oval-2" cx="209.217647" cy="3.5" rx="3.70588235" ry="3.5"></ellipse>
                    <ellipse id="Oval-2" cx="238.576471" cy="3.5" rx="3.70588235" ry="3.5"></ellipse>
                    <ellipse id="Oval-2" cx="267.935294" cy="3.5" rx="3.70588235" ry="3.5"></ellipse>
                    <ellipse id="Oval-2" cx="297.294118" cy="3.5" rx="3.70588235" ry="3.5"></ellipse>
                </g>
                <g id="Group-10" transform="translate(0.000000, 60.000000)">
                    <ellipse id="Oval-2" cx="3.70588235" cy="3.5" rx="3.70588235" ry="3.5"></ellipse>
                    <ellipse id="Oval-2" cx="33.0647059" cy="3.5" rx="3.70588235" ry="3.5"></ellipse>
                    <ellipse id="Oval-2" cx="62.4235294" cy="3.5" rx="3.70588235" ry="3.5"></ellipse>
                    <ellipse id="Oval-2" cx="91.7823529" cy="3.5" rx="3.70588235" ry="3.5"></ellipse>
                    <ellipse id="Oval-2" cx="121.141176" cy="3.5" rx="3.70588235" ry="3.5"></ellipse>
                    <ellipse id="Oval-2" cx="150.5" cy="3.5" rx="3.70588235" ry="3.5"></ellipse>
                    <ellipse id="Oval-2" cx="179.858824" cy="3.5" rx="3.70588235" ry="3.5"></ellipse>
                    <ellipse id="Oval-2" cx="209.217647" cy="3.5" rx="3.70588235" ry="3.5"></ellipse>
                    <ellipse id="Oval-2" cx="238.576471" cy="3.5" rx="3.70588235" ry="3.5"></ellipse>
                    <ellipse id="Oval-2" cx="267.935294" cy="3.5" rx="3.70588235" ry="3.5"></ellipse>
                    <ellipse id="Oval-2" cx="297.294118" cy="3.5" rx="3.70588235" ry="3.5"></ellipse>
                </g>
                <g id="Group-10" transform="translate(0.000000, 90.000000)">
                    <ellipse id="Oval-2" cx="3.70588235" cy="3.5" rx="3.70588235" ry="3.5"></ellipse>
                    <ellipse id="Oval-2" cx="33.0647059" cy="3.5" rx="3.70588235" ry="3.5"></ellipse>
                    <ellipse id="Oval-2" cx="62.4235294" cy="3.5" rx="3.70588235" ry="3.5"></ellipse>
                    <ellipse id="Oval-2" cx="91.7823529" cy="3.5" rx="3.70588235" ry="3.5"></ellipse>
                    <ellipse id="Oval-2" cx="121.141176" cy="3.5" rx="3.70588235" ry="3.5"></ellipse>
                    <ellipse id="Oval-2" cx="150.5" cy="3.5" rx="3.70588235" ry="3.5"></ellipse>
                    <ellipse id="Oval-2" cx="179.858824" cy="3.5" rx="3.70588235" ry="3.5"></ellipse>
                    <ellipse id="Oval-2" cx="209.217647" cy="3.5" rx="3.70588235" ry="3.5"></ellipse>
                    <ellipse id="Oval-2" cx="238.576471" cy="3.5" rx="3.70588235" ry="3.5"></ellipse>
                    <ellipse id="Oval-2" cx="267.935294" cy="3.5" rx="3.70588235" ry="3.5"></ellipse>
                    <ellipse id="Oval-2" cx="297.294118" cy="3.5" rx="3.70588235" ry="3.5"></ellipse>
                </g>
                <g id="Group-10" transform="translate(0.000000, 119.000000)">
                    <ellipse id="Oval-2" cx="3.70588235" cy="3.5" rx="3.70588235" ry="3.5"></ellipse>
                    <ellipse id="Oval-2" cx="33.0647059" cy="3.5" rx="3.70588235" ry="3.5"></ellipse>
                    <ellipse id="Oval-2" cx="62.4235294" cy="3.5" rx="3.70588235" ry="3.5"></ellipse>
                    <ellipse id="Oval-2" cx="91.7823529" cy="3.5" rx="3.70588235" ry="3.5"></ellipse>
                    <ellipse id="Oval-2" cx="121.141176" cy="3.5" rx="3.70588235" ry="3.5"></ellipse>
                    <ellipse id="Oval-2" cx="150.5" cy="3.5" rx="3.70588235" ry="3.5"></ellipse>
                    <ellipse id="Oval-2" cx="179.858824" cy="3.5" rx="3.70588235" ry="3.5"></ellipse>
                    <ellipse id="Oval-2" cx="209.217647" cy="3.5" rx="3.70588235" ry="3.5"></ellipse>
                    <ellipse id="Oval-2" cx="238.576471" cy="3.5" rx="3.70588235" ry="3.5"></ellipse>
                    <ellipse id="Oval-2" cx="267.935294" cy="3.5" rx="3.70588235" ry="3.5"></ellipse>
                    <ellipse id="Oval-2" cx="297.294118" cy="3.5" rx="3.70588235" ry="3.5"></ellipse>
                </g>
                <g id="Group-10" transform="translate(0.000000, 149.000000)">
                    <ellipse id="Oval-2" cx="3.70588235" cy="3.5" rx="3.70588235" ry="3.5"></ellipse>
                    <ellipse id="Oval-2" cx="33.0647059" cy="3.5" rx="3.70588235" ry="3.5"></ellipse>
                    <ellipse id="Oval-2" cx="62.4235294" cy="3.5" rx="3.70588235" ry="3.5"></ellipse>
                    <ellipse id="Oval-2" cx="91.7823529" cy="3.5" rx="3.70588235" ry="3.5"></ellipse>
                    <ellipse id="Oval-2" cx="121.141176" cy="3.5" rx="3.70588235" ry="3.5"></ellipse>
                    <ellipse id="Oval-2" cx="150.5" cy="3.5" rx="3.70588235" ry="3.5"></ellipse>
                    <ellipse id="Oval-2" cx="179.858824" cy="3.5" rx="3.70588235" ry="3.5"></ellipse>
                    <ellipse id="Oval-2" cx="209.217647" cy="3.5" rx="3.70588235" ry="3.5"></ellipse>
                    <ellipse id="Oval-2" cx="238.576471" cy="3.5" rx="3.70588235" ry="3.5"></ellipse>
                    <ellipse id="Oval-2" cx="267.935294" cy="3.5" rx="3.70588235" ry="3.5"></ellipse>
                    <ellipse id="Oval-2" cx="297.294118" cy="3.5" rx="3.70588235" ry="3.5"></ellipse>
                </g>
                <g id="Group-10" transform="translate(0.000000, 179.000000)">
                    <ellipse id="Oval-2" cx="3.70588235" cy="3.5" rx="3.70588235" ry="3.5"></ellipse>
                    <ellipse id="Oval-2" cx="33.0647059" cy="3.5" rx="3.70588235" ry="3.5"></ellipse>
                    <ellipse id="Oval-2" cx="62.4235294" cy="3.5" rx="3.70588235" ry="3.5"></ellipse>
                    <ellipse id="Oval-2" cx="91.7823529" cy="3.5" rx="3.70588235" ry="3.5"></ellipse>
                    <ellipse id="Oval-2" cx="121.141176" cy="3.5" rx="3.70588235" ry="3.5"></ellipse>
                    <ellipse id="Oval-2" cx="150.5" cy="3.5" rx="3.70588235" ry="3.5"></ellipse>
                    <ellipse id="Oval-2" cx="179.858824" cy="3.5" rx="3.70588235" ry="3.5"></ellipse>
                    <ellipse id="Oval-2" cx="209.217647" cy="3.5" rx="3.70588235" ry="3.5"></ellipse>
                    <ellipse id="Oval-2" cx="238.576471" cy="3.5" rx="3.70588235" ry="3.5"></ellipse>
                    <ellipse id="Oval-2" cx="267.935294" cy="3.5" rx="3.70588235" ry="3.5"></ellipse>
                    <ellipse id="Oval-2" cx="297.294118" cy="3.5" rx="3.70588235" ry="3.5"></ellipse>
                </g>
                <g id="Group-10" transform="translate(0.000000, 209.000000)">
                    <ellipse id="Oval-2" cx="3.70588235" cy="3.5" rx="3.70588235" ry="3.5"></ellipse>
                    <ellipse id="Oval-2" cx="33.0647059" cy="3.5" rx="3.70588235" ry="3.5"></ellipse>
                    <ellipse id="Oval-2" cx="62.4235294" cy="3.5" rx="3.70588235" ry="3.5"></ellipse>
                    <ellipse id="Oval-2" cx="91.7823529" cy="3.5" rx="3.70588235" ry="3.5"></ellipse>
                    <ellipse id="Oval-2" cx="121.141176" cy="3.5" rx="3.70588235" ry="3.5"></ellipse>
                    <ellipse id="Oval-2" cx="150.5" cy="3.5" rx="3.70588235" ry="3.5"></ellipse>
                    <ellipse id="Oval-2" cx="179.858824" cy="3.5" rx="3.70588235" ry="3.5"></ellipse>
                    <ellipse id="Oval-2" cx="209.217647" cy="3.5" rx="3.70588235" ry="3.5"></ellipse>
                    <ellipse id="Oval-2" cx="238.576471" cy="3.5" rx="3.70588235" ry="3.5"></ellipse>
                    <ellipse id="Oval-2" cx="267.935294" cy="3.5" rx="3.70588235" ry="3.5"></ellipse>
                    <ellipse id="Oval-2" cx="297.294118" cy="3.5" rx="3.70588235" ry="3.5"></ellipse>
                </g>
                <g id="Group-10" transform="translate(0.000000, 239.000000)">
                    <ellipse id="Oval-2" cx="3.70588235" cy="3.5" rx="3.70588235" ry="3.5"></ellipse>
                    <ellipse id="Oval-2" cx="33.0647059" cy="3.5" rx="3.70588235" ry="3.5"></ellipse>
                    <ellipse id="Oval-2" cx="62.4235294" cy="3.5" rx="3.70588235" ry="3.5"></ellipse>
                    <ellipse id="Oval-2" cx="91.7823529" cy="3.5" rx="3.70588235" ry="3.5"></ellipse>
                    <ellipse id="Oval-2" cx="121.141176" cy="3.5" rx="3.70588235" ry="3.5"></ellipse>
                    <ellipse id="Oval-2" cx="150.5" cy="3.5" rx="3.70588235" ry="3.5"></ellipse>
                    <ellipse id="Oval-2" cx="179.858824" cy="3.5" rx="3.70588235" ry="3.5"></ellipse>
                    <ellipse id="Oval-2" cx="209.217647" cy="3.5" rx="3.70588235" ry="3.5"></ellipse>
                    <ellipse id="Oval-2" cx="238.576471" cy="3.5" rx="3.70588235" ry="3.5"></ellipse>
                    <ellipse id="Oval-2" cx="267.935294" cy="3.5" rx="3.70588235" ry="3.5"></ellipse>
                    <ellipse id="Oval-2" cx="297.294118" cy="3.5" rx="3.70588235" ry="3.5"></ellipse>
                </g>
                <g id="Group-10" transform="translate(0.000000, 269.000000)">
                    <ellipse id="Oval-2" cx="3.70588235" cy="3.5" rx="3.70588235" ry="3.5"></ellipse>
                    <ellipse id="Oval-2" cx="33.0647059" cy="3.5" rx="3.70588235" ry="3.5"></ellipse>
                    <ellipse id="Oval-2" cx="62.4235294" cy="3.5" rx="3.70588235" ry="3.5"></ellipse>
                    <ellipse id="Oval-2" cx="91.7823529" cy="3.5" rx="3.70588235" ry="3.5"></ellipse>
                    <ellipse id="Oval-2" cx="121.141176" cy="3.5" rx="3.70588235" ry="3.5"></ellipse>
                    <ellipse id="Oval-2" cx="150.5" cy="3.5" rx="3.70588235" ry="3.5"></ellipse>
                    <ellipse id="Oval-2" cx="179.858824" cy="3.5" rx="3.70588235" ry="3.5"></ellipse>
                    <ellipse id="Oval-2" cx="209.217647" cy="3.5" rx="3.70588235" ry="3.5"></ellipse>
                    <ellipse id="Oval-2" cx="238.576471" cy="3.5" rx="3.70588235" ry="3.5"></ellipse>
                    <ellipse id="Oval-2" cx="267.935294" cy="3.5" rx="3.70588235" ry="3.5"></ellipse>
                    <ellipse id="Oval-2" cx="297.294118" cy="3.5" rx="3.70588235" ry="3.5"></ellipse>
                </g>
            </g>
            <g id="Group-11" transform="translate(809.000000, 429.000000)" fill="#E2E4E7">
                <g id="Group-10">
                    <ellipse id="Oval-2" cx="3.70588235" cy="3.5" rx="3.70588235" ry="3.5"></ellipse>
                    <ellipse id="Oval-2" cx="33.0647059" cy="3.5" rx="3.70588235" ry="3.5"></ellipse>
                    <ellipse id="Oval-2" cx="62.4235294" cy="3.5" rx="3.70588235" ry="3.5"></ellipse>
                    <ellipse id="Oval-2" cx="91.7823529" cy="3.5" rx="3.70588235" ry="3.5"></ellipse>
                    <ellipse id="Oval-2" cx="121.141176" cy="3.5" rx="3.70588235" ry="3.5"></ellipse>
                    <ellipse id="Oval-2" cx="150.5" cy="3.5" rx="3.70588235" ry="3.5"></ellipse>
                    <ellipse id="Oval-2" cx="179.858824" cy="3.5" rx="3.70588235" ry="3.5"></ellipse>
                    <ellipse id="Oval-2" cx="209.217647" cy="3.5" rx="3.70588235" ry="3.5"></ellipse>
                    <ellipse id="Oval-2" cx="238.576471" cy="3.5" rx="3.70588235" ry="3.5"></ellipse>
                    <ellipse id="Oval-2" cx="267.935294" cy="3.5" rx="3.70588235" ry="3.5"></ellipse>
                    <ellipse id="Oval-2" cx="297.294118" cy="3.5" rx="3.70588235" ry="3.5"></ellipse>
                </g>
                <g id="Group-10" transform="translate(0.000000, 30.000000)">
                    <ellipse id="Oval-2" cx="3.70588235" cy="3.5" rx="3.70588235" ry="3.5"></ellipse>
                    <ellipse id="Oval-2" cx="33.0647059" cy="3.5" rx="3.70588235" ry="3.5"></ellipse>
                    <ellipse id="Oval-2" cx="62.4235294" cy="3.5" rx="3.70588235" ry="3.5"></ellipse>
                    <ellipse id="Oval-2" cx="91.7823529" cy="3.5" rx="3.70588235" ry="3.5"></ellipse>
                    <ellipse id="Oval-2" cx="121.141176" cy="3.5" rx="3.70588235" ry="3.5"></ellipse>
                    <ellipse id="Oval-2" cx="150.5" cy="3.5" rx="3.70588235" ry="3.5"></ellipse>
                    <ellipse id="Oval-2" cx="179.858824" cy="3.5" rx="3.70588235" ry="3.5"></ellipse>
                    <ellipse id="Oval-2" cx="209.217647" cy="3.5" rx="3.70588235" ry="3.5"></ellipse>
                    <ellipse id="Oval-2" cx="238.576471" cy="3.5" rx="3.70588235" ry="3.5"></ellipse>
                    <ellipse id="Oval-2" cx="267.935294" cy="3.5" rx="3.70588235" ry="3.5"></ellipse>
                    <ellipse id="Oval-2" cx="297.294118" cy="3.5" rx="3.70588235" ry="3.5"></ellipse>
                </g>
                <g id="Group-10" transform="translate(0.000000, 60.000000)">
                    <ellipse id="Oval-2" cx="3.70588235" cy="3.5" rx="3.70588235" ry="3.5"></ellipse>
                    <ellipse id="Oval-2" cx="33.0647059" cy="3.5" rx="3.70588235" ry="3.5"></ellipse>
                    <ellipse id="Oval-2" cx="62.4235294" cy="3.5" rx="3.70588235" ry="3.5"></ellipse>
                    <ellipse id="Oval-2" cx="91.7823529" cy="3.5" rx="3.70588235" ry="3.5"></ellipse>
                    <ellipse id="Oval-2" cx="121.141176" cy="3.5" rx="3.70588235" ry="3.5"></ellipse>
                    <ellipse id="Oval-2" cx="150.5" cy="3.5" rx="3.70588235" ry="3.5"></ellipse>
                    <ellipse id="Oval-2" cx="179.858824" cy="3.5" rx="3.70588235" ry="3.5"></ellipse>
                    <ellipse id="Oval-2" cx="209.217647" cy="3.5" rx="3.70588235" ry="3.5"></ellipse>
                    <ellipse id="Oval-2" cx="238.576471" cy="3.5" rx="3.70588235" ry="3.5"></ellipse>
                    <ellipse id="Oval-2" cx="267.935294" cy="3.5" rx="3.70588235" ry="3.5"></ellipse>
                    <ellipse id="Oval-2" cx="297.294118" cy="3.5" rx="3.70588235" ry="3.5"></ellipse>
                </g>
                <g id="Group-10" transform="translate(0.000000, 90.000000)">
                    <ellipse id="Oval-2" cx="3.70588235" cy="3.5" rx="3.70588235" ry="3.5"></ellipse>
                    <ellipse id="Oval-2" cx="33.0647059" cy="3.5" rx="3.70588235" ry="3.5"></ellipse>
                    <ellipse id="Oval-2" cx="62.4235294" cy="3.5" rx="3.70588235" ry="3.5"></ellipse>
                    <ellipse id="Oval-2" cx="91.7823529" cy="3.5" rx="3.70588235" ry="3.5"></ellipse>
                    <ellipse id="Oval-2" cx="121.141176" cy="3.5" rx="3.70588235" ry="3.5"></ellipse>
                    <ellipse id="Oval-2" cx="150.5" cy="3.5" rx="3.70588235" ry="3.5"></ellipse>
                    <ellipse id="Oval-2" cx="179.858824" cy="3.5" rx="3.70588235" ry="3.5"></ellipse>
                    <ellipse id="Oval-2" cx="209.217647" cy="3.5" rx="3.70588235" ry="3.5"></ellipse>
                    <ellipse id="Oval-2" cx="238.576471" cy="3.5" rx="3.70588235" ry="3.5"></ellipse>
                    <ellipse id="Oval-2" cx="267.935294" cy="3.5" rx="3.70588235" ry="3.5"></ellipse>
                    <ellipse id="Oval-2" cx="297.294118" cy="3.5" rx="3.70588235" ry="3.5"></ellipse>
                </g>
                <g id="Group-10" transform="translate(0.000000, 119.000000)">
                    <ellipse id="Oval-2" cx="3.70588235" cy="3.5" rx="3.70588235" ry="3.5"></ellipse>
                    <ellipse id="Oval-2" cx="33.0647059" cy="3.5" rx="3.70588235" ry="3.5"></ellipse>
                    <ellipse id="Oval-2" cx="62.4235294" cy="3.5" rx="3.70588235" ry="3.5"></ellipse>
                    <ellipse id="Oval-2" cx="91.7823529" cy="3.5" rx="3.70588235" ry="3.5"></ellipse>
                    <ellipse id="Oval-2" cx="121.141176" cy="3.5" rx="3.70588235" ry="3.5"></ellipse>
                    <ellipse id="Oval-2" cx="150.5" cy="3.5" rx="3.70588235" ry="3.5"></ellipse>
                    <ellipse id="Oval-2" cx="179.858824" cy="3.5" rx="3.70588235" ry="3.5"></ellipse>
                    <ellipse id="Oval-2" cx="209.217647" cy="3.5" rx="3.70588235" ry="3.5"></ellipse>
                    <ellipse id="Oval-2" cx="238.576471" cy="3.5" rx="3.70588235" ry="3.5"></ellipse>
                    <ellipse id="Oval-2" cx="267.935294" cy="3.5" rx="3.70588235" ry="3.5"></ellipse>
                    <ellipse id="Oval-2" cx="297.294118" cy="3.5" rx="3.70588235" ry="3.5"></ellipse>
                </g>
                <g id="Group-10" transform="translate(0.000000, 149.000000)">
                    <ellipse id="Oval-2" cx="3.70588235" cy="3.5" rx="3.70588235" ry="3.5"></ellipse>
                    <ellipse id="Oval-2" cx="33.0647059" cy="3.5" rx="3.70588235" ry="3.5"></ellipse>
                    <ellipse id="Oval-2" cx="62.4235294" cy="3.5" rx="3.70588235" ry="3.5"></ellipse>
                    <ellipse id="Oval-2" cx="91.7823529" cy="3.5" rx="3.70588235" ry="3.5"></ellipse>
                    <ellipse id="Oval-2" cx="121.141176" cy="3.5" rx="3.70588235" ry="3.5"></ellipse>
                    <ellipse id="Oval-2" cx="150.5" cy="3.5" rx="3.70588235" ry="3.5"></ellipse>
                    <ellipse id="Oval-2" cx="179.858824" cy="3.5" rx="3.70588235" ry="3.5"></ellipse>
                    <ellipse id="Oval-2" cx="209.217647" cy="3.5" rx="3.70588235" ry="3.5"></ellipse>
                    <ellipse id="Oval-2" cx="238.576471" cy="3.5" rx="3.70588235" ry="3.5"></ellipse>
                    <ellipse id="Oval-2" cx="267.935294" cy="3.5" rx="3.70588235" ry="3.5"></ellipse>
                    <ellipse id="Oval-2" cx="297.294118" cy="3.5" rx="3.70588235" ry="3.5"></ellipse>
                </g>
                <g id="Group-10" transform="translate(0.000000, 179.000000)">
                    <ellipse id="Oval-2" cx="3.70588235" cy="3.5" rx="3.70588235" ry="3.5"></ellipse>
                    <ellipse id="Oval-2" cx="33.0647059" cy="3.5" rx="3.70588235" ry="3.5"></ellipse>
                    <ellipse id="Oval-2" cx="62.4235294" cy="3.5" rx="3.70588235" ry="3.5"></ellipse>
                    <ellipse id="Oval-2" cx="91.7823529" cy="3.5" rx="3.70588235" ry="3.5"></ellipse>
                    <ellipse id="Oval-2" cx="121.141176" cy="3.5" rx="3.70588235" ry="3.5"></ellipse>
                    <ellipse id="Oval-2" cx="150.5" cy="3.5" rx="3.70588235" ry="3.5"></ellipse>
                    <ellipse id="Oval-2" cx="179.858824" cy="3.5" rx="3.70588235" ry="3.5"></ellipse>
                    <ellipse id="Oval-2" cx="209.217647" cy="3.5" rx="3.70588235" ry="3.5"></ellipse>
                    <ellipse id="Oval-2" cx="238.576471" cy="3.5" rx="3.70588235" ry="3.5"></ellipse>
                    <ellipse id="Oval-2" cx="267.935294" cy="3.5" rx="3.70588235" ry="3.5"></ellipse>
                    <ellipse id="Oval-2" cx="297.294118" cy="3.5" rx="3.70588235" ry="3.5"></ellipse>
                </g>
                <g id="Group-10" transform="translate(0.000000, 209.000000)">
                    <ellipse id="Oval-2" cx="3.70588235" cy="3.5" rx="3.70588235" ry="3.5"></ellipse>
                    <ellipse id="Oval-2" cx="33.0647059" cy="3.5" rx="3.70588235" ry="3.5"></ellipse>
                    <ellipse id="Oval-2" cx="62.4235294" cy="3.5" rx="3.70588235" ry="3.5"></ellipse>
                    <ellipse id="Oval-2" cx="91.7823529" cy="3.5" rx="3.70588235" ry="3.5"></ellipse>
                    <ellipse id="Oval-2" cx="121.141176" cy="3.5" rx="3.70588235" ry="3.5"></ellipse>
                    <ellipse id="Oval-2" cx="150.5" cy="3.5" rx="3.70588235" ry="3.5"></ellipse>
                    <ellipse id="Oval-2" cx="179.858824" cy="3.5" rx="3.70588235" ry="3.5"></ellipse>
                    <ellipse id="Oval-2" cx="209.217647" cy="3.5" rx="3.70588235" ry="3.5"></ellipse>
                    <ellipse id="Oval-2" cx="238.576471" cy="3.5" rx="3.70588235" ry="3.5"></ellipse>
                    <ellipse id="Oval-2" cx="267.935294" cy="3.5" rx="3.70588235" ry="3.5"></ellipse>
                    <ellipse id="Oval-2" cx="297.294118" cy="3.5" rx="3.70588235" ry="3.5"></ellipse>
                </g>
                <g id="Group-10" transform="translate(0.000000, 239.000000)">
                    <ellipse id="Oval-2" cx="3.70588235" cy="3.5" rx="3.70588235" ry="3.5"></ellipse>
                    <ellipse id="Oval-2" cx="33.0647059" cy="3.5" rx="3.70588235" ry="3.5"></ellipse>
                    <ellipse id="Oval-2" cx="62.4235294" cy="3.5" rx="3.70588235" ry="3.5"></ellipse>
                    <ellipse id="Oval-2" cx="91.7823529" cy="3.5" rx="3.70588235" ry="3.5"></ellipse>
                    <ellipse id="Oval-2" cx="121.141176" cy="3.5" rx="3.70588235" ry="3.5"></ellipse>
                    <ellipse id="Oval-2" cx="150.5" cy="3.5" rx="3.70588235" ry="3.5"></ellipse>
                    <ellipse id="Oval-2" cx="179.858824" cy="3.5" rx="3.70588235" ry="3.5"></ellipse>
                    <ellipse id="Oval-2" cx="209.217647" cy="3.5" rx="3.70588235" ry="3.5"></ellipse>
                    <ellipse id="Oval-2" cx="238.576471" cy="3.5" rx="3.70588235" ry="3.5"></ellipse>
                    <ellipse id="Oval-2" cx="267.935294" cy="3.5" rx="3.70588235" ry="3.5"></ellipse>
                    <ellipse id="Oval-2" cx="297.294118" cy="3.5" rx="3.70588235" ry="3.5"></ellipse>
                </g>
                <g id="Group-10" transform="translate(0.000000, 269.000000)">
                    <ellipse id="Oval-2" cx="3.70588235" cy="3.5" rx="3.70588235" ry="3.5"></ellipse>
                    <ellipse id="Oval-2" cx="33.0647059" cy="3.5" rx="3.70588235" ry="3.5"></ellipse>
                    <ellipse id="Oval-2" cx="62.4235294" cy="3.5" rx="3.70588235" ry="3.5"></ellipse>
                    <ellipse id="Oval-2" cx="91.7823529" cy="3.5" rx="3.70588235" ry="3.5"></ellipse>
                    <ellipse id="Oval-2" cx="121.141176" cy="3.5" rx="3.70588235" ry="3.5"></ellipse>
                    <ellipse id="Oval-2" cx="150.5" cy="3.5" rx="3.70588235" ry="3.5"></ellipse>
                    <ellipse id="Oval-2" cx="179.858824" cy="3.5" rx="3.70588235" ry="3.5"></ellipse>
                    <ellipse id="Oval-2" cx="209.217647" cy="3.5" rx="3.70588235" ry="3.5"></ellipse>
                    <ellipse id="Oval-2" cx="238.576471" cy="3.5" rx="3.70588235" ry="3.5"></ellipse>
                    <ellipse id="Oval-2" cx="267.935294" cy="3.5" rx="3.70588235" ry="3.5"></ellipse>
                    <ellipse id="Oval-2" cx="297.294118" cy="3.5" rx="3.70588235" ry="3.5"></ellipse>
                </g>
            </g>
        </g>
    </g>
</svg>